<svg width="272" height="53" viewBox="0 0 272 53" fill="none" xmlns="http://www.w3.org/2000/svg">
<rect width="272" height="53" fill="black"/>
<path d="M65.1485 35.49C63.8845 35.49 62.9165 35.13 62.2445 34.41C61.5885 33.69 61.2605 32.674 61.2605 31.362V22.338C61.2605 21.026 61.5885 20.01 62.2445 19.29C62.9165 18.57 63.8845 18.21 65.1485 18.21C66.4125 18.21 67.3725 18.57 68.0285 19.29C68.7005 20.01 69.0365 21.026 69.0365 22.338V24.114H66.5405V22.17C66.5405 21.13 66.1005 20.61 65.2205 20.61C64.3405 20.61 63.9005 21.13 63.9005 22.17V31.554C63.9005 32.578 64.3405 33.09 65.2205 33.09C66.1005 33.09 66.5405 32.578 66.5405 31.554V28.986H69.0365V31.362C69.0365 32.674 68.7005 33.69 68.0285 34.41C67.3725 35.13 66.4125 35.49 65.1485 35.49ZM70.616 18.45H73.256V32.85H77.6V35.25H70.616V18.45ZM78.866 18.45H81.506V35.25H78.866V18.45ZM87.2031 35.49C85.9391 35.49 84.9711 35.13 84.2991 34.41C83.6431 33.69 83.3151 32.674 83.3151 31.362V22.338C83.3151 21.026 83.6431 20.01 84.2991 19.29C84.9711 18.57 85.9391 18.21 87.2031 18.21C88.4671 18.21 89.4271 18.57 90.0831 19.29C90.7551 20.01 91.0911 21.026 91.0911 22.338V24.114H88.5951V22.17C88.5951 21.13 88.1551 20.61 87.2751 20.61C86.3951 20.61 85.9551 21.13 85.9551 22.17V31.554C85.9551 32.578 86.3951 33.09 87.2751 33.09C88.1551 33.09 88.5951 32.578 88.5951 31.554V28.986H91.0911V31.362C91.0911 32.674 90.7551 33.69 90.0831 34.41C89.4271 35.13 88.4671 35.49 87.2031 35.49ZM92.6706 18.45H95.3106V25.53L98.6706 18.45H101.311L98.1666 24.618L101.359 35.25H98.5986L96.3666 27.762L95.3106 29.898V35.25H92.6706V18.45ZM109.212 35.49C108.252 35.49 107.524 35.162 107.028 34.506C106.532 33.85 106.284 32.898 106.284 31.65V29.898C106.284 29.018 106.436 28.282 106.74 27.69C107.044 27.098 107.54 26.666 108.228 26.394V26.346C107.604 26.09 107.14 25.682 106.836 25.122C106.548 24.546 106.404 23.81 106.404 22.914V22.602C106.404 21.242 106.732 20.21 107.388 19.506C108.044 18.802 109.028 18.45 110.34 18.45H113.364V20.85H110.388C109.956 20.85 109.62 20.978 109.38 21.234C109.156 21.49 109.044 21.906 109.044 22.482V23.514C109.044 24.154 109.172 24.61 109.428 24.882C109.7 25.154 110.1 25.29 110.628 25.29H111.66V23.418H114.252V25.29H114.996V27.69H114.252V33.21C114.252 33.69 114.268 34.082 114.3 34.386C114.332 34.674 114.412 34.962 114.54 35.25H111.9C111.772 34.898 111.692 34.458 111.66 33.93H111.612C111.324 34.458 110.988 34.85 110.604 35.106C110.236 35.362 109.772 35.49 109.212 35.49ZM110.196 33.09C111.028 33.09 111.516 32.586 111.66 31.578V27.69H110.652C110.044 27.69 109.604 27.858 109.332 28.194C109.06 28.514 108.924 29.058 108.924 29.826V31.53C108.924 32.09 109.036 32.49 109.26 32.73C109.484 32.97 109.796 33.09 110.196 33.09ZM124.023 35.49C122.759 35.49 121.791 35.13 121.119 34.41C120.463 33.69 120.135 32.674 120.135 31.362V22.338C120.135 21.026 120.463 20.01 121.119 19.29C121.791 18.57 122.759 18.21 124.023 18.21C125.287 18.21 126.247 18.57 126.903 19.29C127.575 20.01 127.911 21.026 127.911 22.338V24.114H125.415V22.17C125.415 21.13 124.975 20.61 124.095 20.61C123.215 20.61 122.775 21.13 122.775 22.17V31.554C122.775 32.578 123.215 33.09 124.095 33.09C124.975 33.09 125.415 32.578 125.415 31.554V28.986H127.911V31.362C127.911 32.674 127.575 33.69 126.903 34.41C126.247 35.13 125.287 35.49 124.023 35.49ZM133.354 35.49C132.058 35.49 131.066 35.122 130.378 34.386C129.69 33.65 129.346 32.61 129.346 31.266V22.434C129.346 21.09 129.69 20.05 130.378 19.314C131.066 18.578 132.058 18.21 133.354 18.21C134.65 18.21 135.642 18.578 136.33 19.314C137.018 20.05 137.362 21.09 137.362 22.434V31.266C137.362 32.61 137.018 33.65 136.33 34.386C135.642 35.122 134.65 35.49 133.354 35.49ZM133.354 33.09C134.266 33.09 134.722 32.538 134.722 31.434V22.266C134.722 21.162 134.266 20.61 133.354 20.61C132.442 20.61 131.986 21.162 131.986 22.266V31.434C131.986 32.538 132.442 33.09 133.354 33.09ZM139.147 18.45H141.787V32.85H146.131V35.25H139.147V18.45ZM147.397 18.45H150.037V32.85H154.381V35.25H147.397V18.45ZM155.647 18.45H162.847V20.85H158.287V25.29H161.911V27.69H158.287V32.85H162.847V35.25H155.647V18.45ZM168.086 35.49C166.822 35.49 165.854 35.13 165.182 34.41C164.526 33.69 164.198 32.674 164.198 31.362V22.338C164.198 21.026 164.526 20.01 165.182 19.29C165.854 18.57 166.822 18.21 168.086 18.21C169.35 18.21 170.31 18.57 170.966 19.29C171.638 20.01 171.974 21.026 171.974 22.338V24.114H169.478V22.17C169.478 21.13 169.038 20.61 168.158 20.61C167.278 20.61 166.838 21.13 166.838 22.17V31.554C166.838 32.578 167.278 33.09 168.158 33.09C169.038 33.09 169.478 32.578 169.478 31.554V28.986H171.974V31.362C171.974 32.674 171.638 33.69 170.966 34.41C170.31 35.13 169.35 35.49 168.086 35.49ZM175.617 20.85H172.857V18.45H181.017V20.85H178.257V35.25H175.617V20.85Z" fill="white"/>
</svg>
