<svg width="564" height="20" viewBox="0 0 564 20" fill="none" xmlns="http://www.w3.org/2000/svg">
<path d="M0.88 15V0.999999H3.48V12.8H10.8V15H0.88ZM17.535 15.14C16.3483 15.14 15.3083 14.9067 14.415 14.44C13.535 13.96 12.8483 13.3067 12.355 12.48C11.875 11.6533 11.635 10.7133 11.635 9.66C11.635 8.59333 11.8683 7.65333 12.335 6.84C12.815 6.01333 13.4683 5.36667 14.295 4.9C15.135 4.43333 16.0883 4.2 17.155 4.2C18.195 4.2 19.1217 4.42667 19.935 4.88C20.7483 5.33333 21.3883 5.97333 21.855 6.8C22.3217 7.62667 22.555 8.6 22.555 9.72C22.555 9.82667 22.5483 9.94667 22.535 10.08C22.535 10.2133 22.5283 10.34 22.515 10.46H13.615V8.8H21.195L20.215 9.32C20.2283 8.70667 20.1017 8.16667 19.835 7.7C19.5683 7.23333 19.2017 6.86667 18.735 6.6C18.2817 6.33333 17.755 6.2 17.155 6.2C16.5417 6.2 16.0017 6.33333 15.535 6.6C15.0817 6.86667 14.7217 7.24 14.455 7.72C14.2017 8.18667 14.075 8.74 14.075 9.38V9.78C14.075 10.42 14.2217 10.9867 14.515 11.48C14.8083 11.9733 15.2217 12.3533 15.755 12.62C16.2883 12.8867 16.9017 13.02 17.595 13.02C18.195 13.02 18.735 12.9267 19.215 12.74C19.695 12.5533 20.1217 12.26 20.495 11.86L21.835 13.4C21.355 13.96 20.7483 14.3933 20.015 14.7C19.295 14.9933 18.4683 15.14 17.535 15.14ZM28.2564 15.14C27.3631 15.14 26.5031 15.0267 25.6764 14.8C24.8631 14.56 24.2164 14.2733 23.7364 13.94L24.6964 12.04C25.1764 12.3467 25.7497 12.6 26.4164 12.8C27.0831 13 27.7497 13.1 28.4164 13.1C29.2031 13.1 29.7697 12.9933 30.1164 12.78C30.4764 12.5667 30.6564 12.28 30.6564 11.92C30.6564 11.6267 30.5364 11.4067 30.2964 11.26C30.0564 11.1 29.7431 10.98 29.3564 10.9C28.9697 10.82 28.5364 10.7467 28.0564 10.68C27.5897 10.6133 27.1164 10.5267 26.6364 10.42C26.1697 10.3 25.7431 10.1333 25.3564 9.92C24.9697 9.69333 24.6564 9.39333 24.4164 9.02C24.1764 8.64667 24.0564 8.15333 24.0564 7.54C24.0564 6.86 24.2497 6.27333 24.6364 5.78C25.0231 5.27333 25.5631 4.88667 26.2564 4.62C26.9631 4.34 27.7964 4.2 28.7564 4.2C29.4764 4.2 30.2031 4.28 30.9364 4.44C31.6697 4.6 32.2764 4.82667 32.7564 5.12L31.7964 7.02C31.2897 6.71333 30.7764 6.50667 30.2564 6.4C29.7497 6.28 29.2431 6.22 28.7364 6.22C27.9764 6.22 27.4097 6.33333 27.0364 6.56C26.6764 6.78667 26.4964 7.07333 26.4964 7.42C26.4964 7.74 26.6164 7.98 26.8564 8.14C27.0964 8.3 27.4097 8.42667 27.7964 8.52C28.1831 8.61333 28.6097 8.69333 29.0764 8.76C29.5564 8.81333 30.0297 8.9 30.4964 9.02C30.9631 9.14 31.3897 9.30667 31.7764 9.52C32.1764 9.72 32.4964 10.0067 32.7364 10.38C32.9764 10.7533 33.0964 11.24 33.0964 11.84C33.0964 12.5067 32.8964 13.0867 32.4964 13.58C32.1097 14.0733 31.5564 14.46 30.8364 14.74C30.1164 15.0067 29.2564 15.14 28.2564 15.14ZM46.6967 15.14C45.8301 15.14 45.0367 14.94 44.3167 14.54C43.6101 14.14 43.0434 13.54 42.6167 12.74C42.2034 11.9267 41.9967 10.9 41.9967 9.66C41.9967 8.40667 42.1967 7.38 42.5967 6.58C43.0101 5.78 43.5701 5.18667 44.2767 4.8C44.9834 4.4 45.7901 4.2 46.6967 4.2C47.7501 4.2 48.6767 4.42667 49.4767 4.88C50.2901 5.33333 50.9301 5.96667 51.3967 6.78C51.8767 7.59333 52.1167 8.55333 52.1167 9.66C52.1167 10.7667 51.8767 11.7333 51.3967 12.56C50.9301 13.3733 50.2901 14.0067 49.4767 14.46C48.6767 14.9133 47.7501 15.14 46.6967 15.14ZM40.7767 18.88V4.32H43.1567V6.84L43.0767 9.68L43.2767 12.52V18.88H40.7767ZM46.4167 13C47.0167 13 47.5501 12.8667 48.0167 12.6C48.4967 12.3333 48.8767 11.9467 49.1567 11.44C49.4367 10.9333 49.5767 10.34 49.5767 9.66C49.5767 8.96667 49.4367 8.37333 49.1567 7.88C48.8767 7.37333 48.4967 6.98667 48.0167 6.72C47.5501 6.45333 47.0167 6.32 46.4167 6.32C45.8167 6.32 45.2767 6.45333 44.7967 6.72C44.3167 6.98667 43.9367 7.37333 43.6567 7.88C43.3767 8.37333 43.2367 8.96667 43.2367 9.66C43.2367 10.34 43.3767 10.9333 43.6567 11.44C43.9367 11.9467 44.3167 12.3333 44.7967 12.6C45.2767 12.8667 45.8167 13 46.4167 13ZM54.4877 15V0.159999H56.9877V15H54.4877ZM66.8489 15V12.84L66.7089 12.38V8.6C66.7089 7.86667 66.4889 7.3 66.0489 6.9C65.6089 6.48667 64.9422 6.28 64.0489 6.28C63.4489 6.28 62.8556 6.37333 62.2689 6.56C61.6956 6.74667 61.2089 7.00667 60.8089 7.34L59.8289 5.52C60.4022 5.08 61.0822 4.75333 61.8689 4.54C62.6689 4.31333 63.4956 4.2 64.3489 4.2C65.8956 4.2 67.0889 4.57333 67.9289 5.32C68.7822 6.05333 69.2089 7.19333 69.2089 8.74V15H66.8489ZM63.4889 15.14C62.6889 15.14 61.9889 15.0067 61.3889 14.74C60.7889 14.46 60.3222 14.08 59.9889 13.6C59.6689 13.1067 59.5089 12.5533 59.5089 11.94C59.5089 11.34 59.6489 10.8 59.9289 10.32C60.2222 9.84 60.6956 9.46 61.3489 9.18C62.0022 8.9 62.8689 8.76 63.9489 8.76H67.0489V10.42H64.1289C63.2756 10.42 62.7022 10.56 62.4089 10.84C62.1156 11.1067 61.9689 11.44 61.9689 11.84C61.9689 12.2933 62.1489 12.6533 62.5089 12.92C62.8689 13.1867 63.3689 13.32 64.0089 13.32C64.6222 13.32 65.1689 13.18 65.6489 12.9C66.1422 12.62 66.4956 12.2067 66.7089 11.66L67.1289 13.16C66.8889 13.7867 66.4556 14.2733 65.8289 14.62C65.2156 14.9667 64.4356 15.14 63.4889 15.14ZM76.4373 15.14C75.264 15.14 74.3573 14.84 73.7173 14.24C73.0773 13.6267 72.7573 12.7267 72.7573 11.54V1.96H75.2573V11.48C75.2573 11.9867 75.384 12.38 75.6373 12.66C75.904 12.94 76.2707 13.08 76.7373 13.08C77.2973 13.08 77.764 12.9333 78.1373 12.64L78.8373 14.42C78.544 14.66 78.184 14.84 77.7573 14.96C77.3307 15.08 76.8907 15.14 76.4373 15.14ZM70.9973 6.4V4.4H78.1173V6.4H70.9973ZM84.1939 15.14C83.3006 15.14 82.4406 15.0267 81.6139 14.8C80.8006 14.56 80.1539 14.2733 79.6739 13.94L80.6339 12.04C81.1139 12.3467 81.6872 12.6 82.3539 12.8C83.0206 13 83.6872 13.1 84.3539 13.1C85.1406 13.1 85.7072 12.9933 86.0539 12.78C86.4139 12.5667 86.5939 12.28 86.5939 11.92C86.5939 11.6267 86.4739 11.4067 86.2339 11.26C85.9939 11.1 85.6806 10.98 85.2939 10.9C84.9072 10.82 84.4739 10.7467 83.9939 10.68C83.5272 10.6133 83.0539 10.5267 82.5739 10.42C82.1072 10.3 81.6806 10.1333 81.2939 9.92C80.9072 9.69333 80.5939 9.39333 80.3539 9.02C80.1139 8.64667 79.9939 8.15333 79.9939 7.54C79.9939 6.86 80.1872 6.27333 80.5739 5.78C80.9606 5.27333 81.5006 4.88667 82.1939 4.62C82.9006 4.34 83.7339 4.2 84.6939 4.2C85.4139 4.2 86.1406 4.28 86.8739 4.44C87.6072 4.6 88.2139 4.82667 88.6939 5.12L87.7339 7.02C87.2272 6.71333 86.7139 6.50667 86.1939 6.4C85.6872 6.28 85.1806 6.22 84.6739 6.22C83.9139 6.22 83.3472 6.33333 82.9739 6.56C82.6139 6.78667 82.4339 7.07333 82.4339 7.42C82.4339 7.74 82.5539 7.98 82.7939 8.14C83.0339 8.3 83.3472 8.42667 83.7339 8.52C84.1206 8.61333 84.5472 8.69333 85.0139 8.76C85.4939 8.81333 85.9672 8.9 86.4339 9.02C86.9006 9.14 87.3272 9.30667 87.7139 9.52C88.1139 9.72 88.4339 10.0067 88.6739 10.38C88.9139 10.7533 89.0339 11.24 89.0339 11.84C89.0339 12.5067 88.8339 13.0867 88.4339 13.58C88.0472 14.0733 87.4939 14.46 86.7739 14.74C86.0539 15.0067 85.1939 15.14 84.1939 15.14ZM101.234 15.14C100.208 15.14 99.2809 14.9133 98.4542 14.46C97.6409 13.9933 97.0009 13.3533 96.5342 12.54C96.0676 11.7267 95.8342 10.7667 95.8342 9.66C95.8342 8.55333 96.0676 7.59333 96.5342 6.78C97.0009 5.96667 97.6409 5.33333 98.4542 4.88C99.2809 4.42667 100.208 4.2 101.234 4.2C102.128 4.2 102.928 4.4 103.634 4.8C104.341 5.18667 104.901 5.78 105.314 6.58C105.728 7.38 105.934 8.40667 105.934 9.66C105.934 10.9 105.734 11.9267 105.334 12.74C104.934 13.54 104.381 14.14 103.674 14.54C102.968 14.94 102.154 15.14 101.234 15.14ZM101.534 13C102.134 13 102.668 12.8667 103.134 12.6C103.614 12.3333 103.994 11.9467 104.274 11.44C104.568 10.9333 104.714 10.34 104.714 9.66C104.714 8.96667 104.568 8.37333 104.274 7.88C103.994 7.37333 103.614 6.98667 103.134 6.72C102.668 6.45333 102.134 6.32 101.534 6.32C100.934 6.32 100.394 6.45333 99.9142 6.72C99.4476 6.98667 99.0676 7.37333 98.7742 7.88C98.4942 8.37333 98.3542 8.96667 98.3542 9.66C98.3542 10.34 98.4942 10.9333 98.7742 11.44C99.0676 11.9467 99.4476 12.3333 99.9142 12.6C100.394 12.8667 100.934 13 101.534 13ZM104.774 15V12.48L104.874 9.64L104.674 6.8V0.159999H107.154V15H104.774ZM115.465 15.14C114.278 15.14 113.238 14.9067 112.345 14.44C111.465 13.96 110.778 13.3067 110.285 12.48C109.805 11.6533 109.565 10.7133 109.565 9.66C109.565 8.59333 109.798 7.65333 110.265 6.84C110.745 6.01333 111.398 5.36667 112.225 4.9C113.065 4.43333 114.018 4.2 115.085 4.2C116.125 4.2 117.051 4.42667 117.865 4.88C118.678 5.33333 119.318 5.97333 119.785 6.8C120.251 7.62667 120.485 8.6 120.485 9.72C120.485 9.82667 120.478 9.94667 120.465 10.08C120.465 10.2133 120.458 10.34 120.445 10.46H111.545V8.8H119.125L118.145 9.32C118.158 8.70667 118.031 8.16667 117.765 7.7C117.498 7.23333 117.131 6.86667 116.665 6.6C116.211 6.33333 115.685 6.2 115.085 6.2C114.471 6.2 113.931 6.33333 113.465 6.6C113.011 6.86667 112.651 7.24 112.385 7.72C112.131 8.18667 112.005 8.74 112.005 9.38V9.78C112.005 10.42 112.151 10.9867 112.445 11.48C112.738 11.9733 113.151 12.3533 113.685 12.62C114.218 12.8867 114.831 13.02 115.525 13.02C116.125 13.02 116.665 12.9267 117.145 12.74C117.625 12.5533 118.051 12.26 118.425 11.86L119.765 13.4C119.285 13.96 118.678 14.3933 117.945 14.7C117.225 14.9933 116.398 15.14 115.465 15.14ZM132.093 15V9.46L132.673 11.06L126.593 0.999999H129.373L134.253 9.1H132.693L137.613 0.999999H140.173L134.093 11.06L134.693 9.46V15H132.093ZM146.908 15V12.84L146.768 12.38V8.6C146.768 7.86667 146.548 7.3 146.108 6.9C145.668 6.48667 145.001 6.28 144.108 6.28C143.508 6.28 142.914 6.37333 142.328 6.56C141.754 6.74667 141.268 7.00667 140.868 7.34L139.888 5.52C140.461 5.08 141.141 4.75333 141.928 4.54C142.728 4.31333 143.554 4.2 144.408 4.2C145.954 4.2 147.148 4.57333 147.988 5.32C148.841 6.05333 149.268 7.19333 149.268 8.74V15H146.908ZM143.548 15.14C142.748 15.14 142.048 15.0067 141.448 14.74C140.848 14.46 140.381 14.08 140.048 13.6C139.728 13.1067 139.568 12.5533 139.568 11.94C139.568 11.34 139.708 10.8 139.988 10.32C140.281 9.84 140.754 9.46 141.408 9.18C142.061 8.9 142.928 8.76 144.008 8.76H147.108V10.42H144.188C143.334 10.42 142.761 10.56 142.468 10.84C142.174 11.1067 142.028 11.44 142.028 11.84C142.028 12.2933 142.208 12.6533 142.568 12.92C142.928 13.1867 143.428 13.32 144.068 13.32C144.681 13.32 145.228 13.18 145.708 12.9C146.201 12.62 146.554 12.2067 146.768 11.66L147.188 13.16C146.948 13.7867 146.514 14.2733 145.888 14.62C145.274 14.9667 144.494 15.14 143.548 15.14ZM155.776 15.14C154.883 15.14 154.023 15.0267 153.196 14.8C152.383 14.56 151.736 14.2733 151.256 13.94L152.216 12.04C152.696 12.3467 153.269 12.6 153.936 12.8C154.603 13 155.269 13.1 155.936 13.1C156.723 13.1 157.289 12.9933 157.636 12.78C157.996 12.5667 158.176 12.28 158.176 11.92C158.176 11.6267 158.056 11.4067 157.816 11.26C157.576 11.1 157.263 10.98 156.876 10.9C156.489 10.82 156.056 10.7467 155.576 10.68C155.109 10.6133 154.636 10.5267 154.156 10.42C153.689 10.3 153.263 10.1333 152.876 9.92C152.489 9.69333 152.176 9.39333 151.936 9.02C151.696 8.64667 151.576 8.15333 151.576 7.54C151.576 6.86 151.769 6.27333 152.156 5.78C152.543 5.27333 153.083 4.88667 153.776 4.62C154.483 4.34 155.316 4.2 156.276 4.2C156.996 4.2 157.723 4.28 158.456 4.44C159.189 4.6 159.796 4.82667 160.276 5.12L159.316 7.02C158.809 6.71333 158.296 6.50667 157.776 6.4C157.269 6.28 156.763 6.22 156.256 6.22C155.496 6.22 154.929 6.33333 154.556 6.56C154.196 6.78667 154.016 7.07333 154.016 7.42C154.016 7.74 154.136 7.98 154.376 8.14C154.616 8.3 154.929 8.42667 155.316 8.52C155.703 8.61333 156.129 8.69333 156.596 8.76C157.076 8.81333 157.549 8.9 158.016 9.02C158.483 9.14 158.909 9.30667 159.296 9.52C159.696 9.72 160.016 10.0067 160.256 10.38C160.496 10.7533 160.616 11.24 160.616 11.84C160.616 12.5067 160.416 13.0867 160.016 13.58C159.629 14.0733 159.076 14.46 158.356 14.74C157.636 15.0067 156.776 15.14 155.776 15.14ZM166.069 15.14C165.176 15.14 164.316 15.0267 163.489 14.8C162.676 14.56 162.029 14.2733 161.549 13.94L162.509 12.04C162.989 12.3467 163.562 12.6 164.229 12.8C164.896 13 165.562 13.1 166.229 13.1C167.016 13.1 167.582 12.9933 167.929 12.78C168.289 12.5667 168.469 12.28 168.469 11.92C168.469 11.6267 168.349 11.4067 168.109 11.26C167.869 11.1 167.556 10.98 167.169 10.9C166.782 10.82 166.349 10.7467 165.869 10.68C165.402 10.6133 164.929 10.5267 164.449 10.42C163.982 10.3 163.556 10.1333 163.169 9.92C162.782 9.69333 162.469 9.39333 162.229 9.02C161.989 8.64667 161.869 8.15333 161.869 7.54C161.869 6.86 162.062 6.27333 162.449 5.78C162.836 5.27333 163.376 4.88667 164.069 4.62C164.776 4.34 165.609 4.2 166.569 4.2C167.289 4.2 168.016 4.28 168.749 4.44C169.482 4.6 170.089 4.82667 170.569 5.12L169.609 7.02C169.102 6.71333 168.589 6.50667 168.069 6.4C167.562 6.28 167.056 6.22 166.549 6.22C165.789 6.22 165.222 6.33333 164.849 6.56C164.489 6.78667 164.309 7.07333 164.309 7.42C164.309 7.74 164.429 7.98 164.669 8.14C164.909 8.3 165.222 8.42667 165.609 8.52C165.996 8.61333 166.422 8.69333 166.889 8.76C167.369 8.81333 167.842 8.9 168.309 9.02C168.776 9.14 169.202 9.30667 169.589 9.52C169.989 9.72 170.309 10.0067 170.549 10.38C170.789 10.7533 170.909 11.24 170.909 11.84C170.909 12.5067 170.709 13.0867 170.309 13.58C169.922 14.0733 169.369 14.46 168.649 14.74C167.929 15.0067 167.069 15.14 166.069 15.14ZM179.642 15V12.84L179.502 12.38V8.6C179.502 7.86667 179.282 7.3 178.842 6.9C178.402 6.48667 177.735 6.28 176.842 6.28C176.242 6.28 175.649 6.37333 175.062 6.56C174.489 6.74667 174.002 7.00667 173.602 7.34L172.622 5.52C173.195 5.08 173.875 4.75333 174.662 4.54C175.462 4.31333 176.289 4.2 177.142 4.2C178.689 4.2 179.882 4.57333 180.722 5.32C181.575 6.05333 182.002 7.19333 182.002 8.74V15H179.642ZM176.282 15.14C175.482 15.14 174.782 15.0067 174.182 14.74C173.582 14.46 173.115 14.08 172.782 13.6C172.462 13.1067 172.302 12.5533 172.302 11.94C172.302 11.34 172.442 10.8 172.722 10.32C173.015 9.84 173.489 9.46 174.142 9.18C174.795 8.9 175.662 8.76 176.742 8.76H179.842V10.42H176.922C176.069 10.42 175.495 10.56 175.202 10.84C174.909 11.1067 174.762 11.44 174.762 11.84C174.762 12.2933 174.942 12.6533 175.302 12.92C175.662 13.1867 176.162 13.32 176.802 13.32C177.415 13.32 177.962 13.18 178.442 12.9C178.935 12.62 179.289 12.2067 179.502 11.66L179.922 13.16C179.682 13.7867 179.249 14.2733 178.622 14.62C178.009 14.9667 177.229 15.14 176.282 15.14ZM190.738 15V0.159999H193.238V15H190.738ZM201.539 15.14C200.352 15.14 199.312 14.9067 198.419 14.44C197.539 13.96 196.852 13.3067 196.359 12.48C195.879 11.6533 195.639 10.7133 195.639 9.66C195.639 8.59333 195.872 7.65333 196.339 6.84C196.819 6.01333 197.472 5.36667 198.299 4.9C199.139 4.43333 200.092 4.2 201.159 4.2C202.199 4.2 203.126 4.42667 203.939 4.88C204.752 5.33333 205.392 5.97333 205.859 6.8C206.326 7.62667 206.559 8.6 206.559 9.72C206.559 9.82667 206.552 9.94667 206.539 10.08C206.539 10.2133 206.532 10.34 206.519 10.46H197.619V8.8H205.199L204.219 9.32C204.232 8.70667 204.106 8.16667 203.839 7.7C203.572 7.23333 203.206 6.86667 202.739 6.6C202.286 6.33333 201.759 6.2 201.159 6.2C200.546 6.2 200.006 6.33333 199.539 6.6C199.086 6.86667 198.726 7.24 198.459 7.72C198.206 8.18667 198.079 8.74 198.079 9.38V9.78C198.079 10.42 198.226 10.9867 198.519 11.48C198.812 11.9733 199.226 12.3533 199.759 12.62C200.292 12.8867 200.906 13.02 201.599 13.02C202.199 13.02 202.739 12.9267 203.219 12.74C203.699 12.5533 204.126 12.26 204.499 11.86L205.839 13.4C205.359 13.96 204.752 14.3933 204.019 14.7C203.299 14.9933 202.472 15.14 201.539 15.14ZM212.26 15.14C211.367 15.14 210.507 15.0267 209.68 14.8C208.867 14.56 208.22 14.2733 207.74 13.94L208.7 12.04C209.18 12.3467 209.754 12.6 210.42 12.8C211.087 13 211.754 13.1 212.42 13.1C213.207 13.1 213.774 12.9933 214.12 12.78C214.48 12.5667 214.66 12.28 214.66 11.92C214.66 11.6267 214.54 11.4067 214.3 11.26C214.06 11.1 213.747 10.98 213.36 10.9C212.974 10.82 212.54 10.7467 212.06 10.68C211.594 10.6133 211.12 10.5267 210.64 10.42C210.174 10.3 209.747 10.1333 209.36 9.92C208.974 9.69333 208.66 9.39333 208.42 9.02C208.18 8.64667 208.06 8.15333 208.06 7.54C208.06 6.86 208.254 6.27333 208.64 5.78C209.027 5.27333 209.567 4.88667 210.26 4.62C210.967 4.34 211.8 4.2 212.76 4.2C213.48 4.2 214.207 4.28 214.94 4.44C215.674 4.6 216.28 4.82667 216.76 5.12L215.8 7.02C215.294 6.71333 214.78 6.50667 214.26 6.4C213.754 6.28 213.247 6.22 212.74 6.22C211.98 6.22 211.414 6.33333 211.04 6.56C210.68 6.78667 210.5 7.07333 210.5 7.42C210.5 7.74 210.62 7.98 210.86 8.14C211.1 8.3 211.414 8.42667 211.8 8.52C212.187 8.61333 212.614 8.69333 213.08 8.76C213.56 8.81333 214.034 8.9 214.5 9.02C214.967 9.14 215.394 9.30667 215.78 9.52C216.18 9.72 216.5 10.0067 216.74 10.38C216.98 10.7533 217.1 11.24 217.1 11.84C217.1 12.5067 216.9 13.0867 216.5 13.58C216.114 14.0733 215.56 14.46 214.84 14.74C214.12 15.0067 213.26 15.14 212.26 15.14ZM230.701 15.14C229.834 15.14 229.041 14.94 228.321 14.54C227.614 14.14 227.047 13.54 226.621 12.74C226.207 11.9267 226.001 10.9 226.001 9.66C226.001 8.40667 226.201 7.38 226.601 6.58C227.014 5.78 227.574 5.18667 228.281 4.8C228.987 4.4 229.794 4.2 230.701 4.2C231.754 4.2 232.681 4.42667 233.481 4.88C234.294 5.33333 234.934 5.96667 235.401 6.78C235.881 7.59333 236.121 8.55333 236.121 9.66C236.121 10.7667 235.881 11.7333 235.401 12.56C234.934 13.3733 234.294 14.0067 233.481 14.46C232.681 14.9133 231.754 15.14 230.701 15.14ZM224.781 18.88V4.32H227.161V6.84L227.081 9.68L227.281 12.52V18.88H224.781ZM230.421 13C231.021 13 231.554 12.8667 232.021 12.6C232.501 12.3333 232.881 11.9467 233.161 11.44C233.441 10.9333 233.581 10.34 233.581 9.66C233.581 8.96667 233.441 8.37333 233.161 7.88C232.881 7.37333 232.501 6.98667 232.021 6.72C231.554 6.45333 231.021 6.32 230.421 6.32C229.821 6.32 229.281 6.45333 228.801 6.72C228.321 6.98667 227.941 7.37333 227.661 7.88C227.381 8.37333 227.241 8.96667 227.241 9.66C227.241 10.34 227.381 10.9333 227.661 11.44C227.941 11.9467 228.321 12.3333 228.801 12.6C229.281 12.8667 229.821 13 230.421 13ZM238.492 15V0.159999H240.992V15H238.492ZM248.793 15.14C247.886 15.14 247.086 14.9733 246.393 14.64C245.699 14.2933 245.159 13.7733 244.773 13.08C244.386 12.3733 244.193 11.4867 244.193 10.42V4.32H246.693V10.08C246.693 11.04 246.906 11.76 247.333 12.24C247.773 12.7067 248.393 12.94 249.193 12.94C249.779 12.94 250.286 12.82 250.713 12.58C251.153 12.34 251.493 11.98 251.733 11.5C251.986 11.02 252.113 10.4267 252.113 9.72V4.32H254.613V15H252.233V12.12L252.653 13C252.293 13.6933 251.766 14.2267 251.073 14.6C250.379 14.96 249.619 15.14 248.793 15.14ZM261.186 15.14C260.293 15.14 259.433 15.0267 258.606 14.8C257.793 14.56 257.146 14.2733 256.666 13.94L257.626 12.04C258.106 12.3467 258.679 12.6 259.346 12.8C260.013 13 260.679 13.1 261.346 13.1C262.133 13.1 262.699 12.9933 263.046 12.78C263.406 12.5667 263.586 12.28 263.586 11.92C263.586 11.6267 263.466 11.4067 263.226 11.26C262.986 11.1 262.673 10.98 262.286 10.9C261.899 10.82 261.466 10.7467 260.986 10.68C260.519 10.6133 260.046 10.5267 259.566 10.42C259.099 10.3 258.673 10.1333 258.286 9.92C257.899 9.69333 257.586 9.39333 257.346 9.02C257.106 8.64667 256.986 8.15333 256.986 7.54C256.986 6.86 257.179 6.27333 257.566 5.78C257.953 5.27333 258.493 4.88667 259.186 4.62C259.893 4.34 260.726 4.2 261.686 4.2C262.406 4.2 263.133 4.28 263.866 4.44C264.599 4.6 265.206 4.82667 265.686 5.12L264.726 7.02C264.219 6.71333 263.706 6.50667 263.186 6.4C262.679 6.28 262.173 6.22 261.666 6.22C260.906 6.22 260.339 6.33333 259.966 6.56C259.606 6.78667 259.426 7.07333 259.426 7.42C259.426 7.74 259.546 7.98 259.786 8.14C260.026 8.3 260.339 8.42667 260.726 8.52C261.113 8.61333 261.539 8.69333 262.006 8.76C262.486 8.81333 262.959 8.9 263.426 9.02C263.893 9.14 264.319 9.30667 264.706 9.52C265.106 9.72 265.426 10.0067 265.666 10.38C265.906 10.7533 266.026 11.24 266.026 11.84C266.026 12.5067 265.826 13.0867 265.426 13.58C265.039 14.0733 264.486 14.46 263.766 14.74C263.046 15.0067 262.186 15.14 261.186 15.14ZM362.406 15.14C361.379 15.14 360.453 14.9133 359.626 14.46C358.813 13.9933 358.173 13.3533 357.706 12.54C357.239 11.7267 357.006 10.7667 357.006 9.66C357.006 8.55333 357.239 7.59333 357.706 6.78C358.173 5.96667 358.813 5.33333 359.626 4.88C360.453 4.42667 361.379 4.2 362.406 4.2C363.299 4.2 364.099 4.4 364.806 4.8C365.513 5.18667 366.073 5.78 366.486 6.58C366.899 7.38 367.106 8.40667 367.106 9.66C367.106 10.9 366.906 11.9267 366.506 12.74C366.106 13.54 365.553 14.14 364.846 14.54C364.139 14.94 363.326 15.14 362.406 15.14ZM362.706 13C363.306 13 363.839 12.8667 364.306 12.6C364.786 12.3333 365.166 11.9467 365.446 11.44C365.739 10.9333 365.886 10.34 365.886 9.66C365.886 8.96667 365.739 8.37333 365.446 7.88C365.166 7.37333 364.786 6.98667 364.306 6.72C363.839 6.45333 363.306 6.32 362.706 6.32C362.106 6.32 361.566 6.45333 361.086 6.72C360.619 6.98667 360.239 7.37333 359.946 7.88C359.666 8.37333 359.526 8.96667 359.526 9.66C359.526 10.34 359.666 10.9333 359.946 11.44C360.239 11.9467 360.619 12.3333 361.086 12.6C361.566 12.8667 362.106 13 362.706 13ZM365.946 15V12.48L366.046 9.64L365.846 6.8V0.159999H368.326V15H365.946ZM376.637 15.14C375.45 15.14 374.41 14.9067 373.517 14.44C372.637 13.96 371.95 13.3067 371.457 12.48C370.977 11.6533 370.737 10.7133 370.737 9.66C370.737 8.59333 370.97 7.65333 371.437 6.84C371.917 6.01333 372.57 5.36667 373.397 4.9C374.237 4.43333 375.19 4.2 376.257 4.2C377.297 4.2 378.223 4.42667 379.037 4.88C379.85 5.33333 380.49 5.97333 380.957 6.8C381.423 7.62667 381.657 8.6 381.657 9.72C381.657 9.82667 381.65 9.94667 381.637 10.08C381.637 10.2133 381.63 10.34 381.617 10.46H372.717V8.8H380.297L379.317 9.32C379.33 8.70667 379.203 8.16667 378.937 7.7C378.67 7.23333 378.303 6.86667 377.837 6.6C377.383 6.33333 376.857 6.2 376.257 6.2C375.643 6.2 375.103 6.33333 374.637 6.6C374.183 6.86667 373.823 7.24 373.557 7.72C373.303 8.18667 373.177 8.74 373.177 9.38V9.78C373.177 10.42 373.323 10.9867 373.617 11.48C373.91 11.9733 374.323 12.3533 374.857 12.62C375.39 12.8867 376.003 13.02 376.697 13.02C377.297 13.02 377.837 12.9267 378.317 12.74C378.797 12.5533 379.223 12.26 379.597 11.86L380.937 13.4C380.457 13.96 379.85 14.3933 379.117 14.7C378.397 14.9933 377.57 15.14 376.637 15.14ZM393.605 15.14C392.432 15.14 391.525 14.84 390.885 14.24C390.245 13.6267 389.925 12.7267 389.925 11.54V1.96H392.425V11.48C392.425 11.9867 392.552 12.38 392.805 12.66C393.072 12.94 393.439 13.08 393.905 13.08C394.465 13.08 394.932 12.9333 395.305 12.64L396.005 14.42C395.712 14.66 395.352 14.84 394.925 14.96C394.499 15.08 394.059 15.14 393.605 15.14ZM388.165 6.4V4.4H395.285V6.4H388.165ZM402.51 15.14C401.417 15.14 400.444 14.9067 399.59 14.44C398.737 13.96 398.064 13.3067 397.57 12.48C397.077 11.6533 396.83 10.7133 396.83 9.66C396.83 8.59333 397.077 7.65333 397.57 6.84C398.064 6.01333 398.737 5.36667 399.59 4.9C400.444 4.43333 401.417 4.2 402.51 4.2C403.617 4.2 404.597 4.43333 405.45 4.9C406.317 5.36667 406.99 6.00667 407.47 6.82C407.964 7.63333 408.21 8.58 408.21 9.66C408.21 10.7133 407.964 11.6533 407.47 12.48C406.99 13.3067 406.317 13.96 405.45 14.44C404.597 14.9067 403.617 15.14 402.51 15.14ZM402.51 13C403.124 13 403.67 12.8667 404.15 12.6C404.63 12.3333 405.004 11.9467 405.27 11.44C405.55 10.9333 405.69 10.34 405.69 9.66C405.69 8.96667 405.55 8.37333 405.27 7.88C405.004 7.37333 404.63 6.98667 404.15 6.72C403.67 6.45333 403.13 6.32 402.53 6.32C401.917 6.32 401.37 6.45333 400.89 6.72C400.424 6.98667 400.05 7.37333 399.77 7.88C399.49 8.37333 399.35 8.96667 399.35 9.66C399.35 10.34 399.49 10.9333 399.77 11.44C400.05 11.9467 400.424 12.3333 400.89 12.6C401.37 12.8667 401.91 13 402.51 13ZM415.121 15.14C414.214 15.14 413.414 14.9733 412.721 14.64C412.028 14.2933 411.488 13.7733 411.101 13.08C410.714 12.3733 410.521 11.4867 410.521 10.42V4.32H413.021V10.08C413.021 11.04 413.234 11.76 413.661 12.24C414.101 12.7067 414.721 12.94 415.521 12.94C416.108 12.94 416.614 12.82 417.041 12.58C417.481 12.34 417.821 11.98 418.061 11.5C418.314 11.02 418.441 10.4267 418.441 9.72V4.32H420.941V15H418.561V12.12L418.981 13C418.621 13.6933 418.094 14.2267 417.401 14.6C416.708 14.96 415.948 15.14 415.121 15.14ZM428.234 15.14C427.061 15.14 426.154 14.84 425.514 14.24C424.874 13.6267 424.554 12.7267 424.554 11.54V1.96H427.054V11.48C427.054 11.9867 427.181 12.38 427.434 12.66C427.701 12.94 428.068 13.08 428.534 13.08C429.094 13.08 429.561 12.9333 429.934 12.64L430.634 14.42C430.341 14.66 429.981 14.84 429.554 14.96C429.128 15.08 428.688 15.14 428.234 15.14ZM422.794 6.4V4.4H429.914V6.4H422.794ZM450.325 15V12.84L450.185 12.38V8.6C450.185 7.86667 449.965 7.3 449.525 6.9C449.085 6.48667 448.419 6.28 447.525 6.28C446.925 6.28 446.332 6.37333 445.745 6.56C445.172 6.74667 444.685 7.00667 444.285 7.34L443.305 5.52C443.879 5.08 444.559 4.75333 445.345 4.54C446.145 4.31333 446.972 4.2 447.825 4.2C449.372 4.2 450.565 4.57333 451.405 5.32C452.259 6.05333 452.685 7.19333 452.685 8.74V15H450.325ZM446.965 15.14C446.165 15.14 445.465 15.0067 444.865 14.74C444.265 14.46 443.799 14.08 443.465 13.6C443.145 13.1067 442.985 12.5533 442.985 11.94C442.985 11.34 443.125 10.8 443.405 10.32C443.699 9.84 444.172 9.46 444.825 9.18C445.479 8.9 446.345 8.76 447.425 8.76H450.525V10.42H447.605C446.752 10.42 446.179 10.56 445.885 10.84C445.592 11.1067 445.445 11.44 445.445 11.84C445.445 12.2933 445.625 12.6533 445.985 12.92C446.345 13.1867 446.845 13.32 447.485 13.32C448.099 13.32 448.645 13.18 449.125 12.9C449.619 12.62 449.972 12.2067 450.185 11.66L450.605 13.16C450.365 13.7867 449.932 14.2733 449.305 14.62C448.692 14.9667 447.912 15.14 446.965 15.14ZM460.414 15.14C459.507 15.14 458.707 14.9733 458.014 14.64C457.321 14.2933 456.781 13.7733 456.394 13.08C456.007 12.3733 455.814 11.4867 455.814 10.42V4.32H458.314V10.08C458.314 11.04 458.527 11.76 458.954 12.24C459.394 12.7067 460.014 12.94 460.814 12.94C461.401 12.94 461.907 12.82 462.334 12.58C462.774 12.34 463.114 11.98 463.354 11.5C463.607 11.02 463.734 10.4267 463.734 9.72V4.32H466.234V15H463.854V12.12L464.274 13C463.914 13.6933 463.387 14.2267 462.694 14.6C462.001 14.96 461.241 15.14 460.414 15.14ZM468.047 15L472.747 8.88L472.707 10.22L468.227 4.32H471.007L474.147 8.52H473.087L476.247 4.32H478.947L474.427 10.22L474.447 8.88L479.127 15H476.307L473.007 10.54L474.047 10.68L470.807 15H468.047ZM489.799 15.14C488.906 15.14 488.046 15.0267 487.219 14.8C486.406 14.56 485.759 14.2733 485.279 13.94L486.239 12.04C486.719 12.3467 487.293 12.6 487.959 12.8C488.626 13 489.293 13.1 489.959 13.1C490.746 13.1 491.313 12.9933 491.659 12.78C492.019 12.5667 492.199 12.28 492.199 11.92C492.199 11.6267 492.079 11.4067 491.839 11.26C491.599 11.1 491.286 10.98 490.899 10.9C490.513 10.82 490.079 10.7467 489.599 10.68C489.133 10.6133 488.659 10.5267 488.179 10.42C487.713 10.3 487.286 10.1333 486.899 9.92C486.513 9.69333 486.199 9.39333 485.959 9.02C485.719 8.64667 485.599 8.15333 485.599 7.54C485.599 6.86 485.793 6.27333 486.179 5.78C486.566 5.27333 487.106 4.88667 487.799 4.62C488.506 4.34 489.339 4.2 490.299 4.2C491.019 4.2 491.746 4.28 492.479 4.44C493.213 4.6 493.819 4.82667 494.299 5.12L493.339 7.02C492.833 6.71333 492.319 6.50667 491.799 6.4C491.293 6.28 490.786 6.22 490.279 6.22C489.519 6.22 488.953 6.33333 488.579 6.56C488.219 6.78667 488.039 7.07333 488.039 7.42C488.039 7.74 488.159 7.98 488.399 8.14C488.639 8.3 488.953 8.42667 489.339 8.52C489.726 8.61333 490.153 8.69333 490.619 8.76C491.099 8.81333 491.573 8.9 492.039 9.02C492.506 9.14 492.933 9.30667 493.319 9.52C493.719 9.72 494.039 10.0067 494.279 10.38C494.519 10.7533 494.639 11.24 494.639 11.84C494.639 12.5067 494.439 13.0867 494.039 13.58C493.653 14.0733 493.099 14.46 492.379 14.74C491.659 15.0067 490.799 15.14 489.799 15.14ZM501.812 15.14C500.626 15.14 499.586 14.9067 498.692 14.44C497.812 13.96 497.126 13.3067 496.632 12.48C496.152 11.6533 495.912 10.7133 495.912 9.66C495.912 8.59333 496.146 7.65333 496.612 6.84C497.092 6.01333 497.746 5.36667 498.572 4.9C499.412 4.43333 500.366 4.2 501.432 4.2C502.472 4.2 503.399 4.42667 504.212 4.88C505.026 5.33333 505.666 5.97333 506.132 6.8C506.599 7.62667 506.832 8.6 506.832 9.72C506.832 9.82667 506.826 9.94667 506.812 10.08C506.812 10.2133 506.806 10.34 506.792 10.46H497.892V8.8H505.472L504.492 9.32C504.506 8.70667 504.379 8.16667 504.112 7.7C503.846 7.23333 503.479 6.86667 503.012 6.6C502.559 6.33333 502.032 6.2 501.432 6.2C500.819 6.2 500.279 6.33333 499.812 6.6C499.359 6.86667 498.999 7.24 498.732 7.72C498.479 8.18667 498.352 8.74 498.352 9.38V9.78C498.352 10.42 498.499 10.9867 498.792 11.48C499.086 11.9733 499.499 12.3533 500.032 12.62C500.566 12.8867 501.179 13.02 501.872 13.02C502.472 13.02 503.012 12.9267 503.492 12.74C503.972 12.5533 504.399 12.26 504.772 11.86L506.112 13.4C505.632 13.96 505.026 14.3933 504.292 14.7C503.572 14.9933 502.746 15.14 501.812 15.14ZM515.294 4.2C516.147 4.2 516.907 4.36667 517.574 4.7C518.254 5.03333 518.787 5.54667 519.174 6.24C519.56 6.92 519.754 7.8 519.754 8.88V15H517.254V9.2C517.254 8.25333 517.027 7.54667 516.574 7.08C516.134 6.61333 515.514 6.38 514.714 6.38C514.127 6.38 513.607 6.5 513.154 6.74C512.7 6.98 512.347 7.34 512.094 7.82C511.854 8.28667 511.734 8.88 511.734 9.6V15H509.234V4.32H511.614V7.2L511.194 6.32C511.567 5.64 512.107 5.12 512.814 4.76C513.534 4.38667 514.36 4.2 515.294 4.2ZM527.965 15.14C526.778 15.14 525.738 14.9067 524.845 14.44C523.965 13.96 523.278 13.3067 522.785 12.48C522.305 11.6533 522.065 10.7133 522.065 9.66C522.065 8.59333 522.298 7.65333 522.765 6.84C523.245 6.01333 523.898 5.36667 524.725 4.9C525.565 4.43333 526.518 4.2 527.585 4.2C528.625 4.2 529.551 4.42667 530.365 4.88C531.178 5.33333 531.818 5.97333 532.285 6.8C532.751 7.62667 532.985 8.6 532.985 9.72C532.985 9.82667 532.978 9.94667 532.965 10.08C532.965 10.2133 532.958 10.34 532.945 10.46H524.045V8.8H531.625L530.645 9.32C530.658 8.70667 530.531 8.16667 530.265 7.7C529.998 7.23333 529.631 6.86667 529.165 6.6C528.711 6.33333 528.185 6.2 527.585 6.2C526.971 6.2 526.431 6.33333 525.965 6.6C525.511 6.86667 525.151 7.24 524.885 7.72C524.631 8.18667 524.505 8.74 524.505 9.38V9.78C524.505 10.42 524.651 10.9867 524.945 11.48C525.238 11.9733 525.651 12.3533 526.185 12.62C526.718 12.8867 527.331 13.02 528.025 13.02C528.625 13.02 529.165 12.9267 529.645 12.74C530.125 12.5533 530.551 12.26 530.925 11.86L532.265 13.4C531.785 13.96 531.178 14.3933 530.445 14.7C529.725 14.9933 528.898 15.14 527.965 15.14ZM540.226 19.02C539.239 19.02 538.273 18.8867 537.326 18.62C536.393 18.3667 535.626 17.9933 535.026 17.5L536.146 15.62C536.613 16.0067 537.199 16.3133 537.906 16.54C538.626 16.78 539.353 16.9 540.086 16.9C541.259 16.9 542.119 16.6267 542.666 16.08C543.213 15.5467 543.486 14.74 543.486 13.66V11.76L543.686 9.34L543.606 6.92V4.32H545.986V13.38C545.986 15.3133 545.493 16.7333 544.506 17.64C543.519 18.56 542.093 19.02 540.226 19.02ZM539.906 14.52C538.893 14.52 537.973 14.3067 537.146 13.88C536.333 13.44 535.686 12.8333 535.206 12.06C534.739 11.2867 534.506 10.38 534.506 9.34C534.506 8.31333 534.739 7.41333 535.206 6.64C535.686 5.86667 536.333 5.26667 537.146 4.84C537.973 4.41333 538.893 4.2 539.906 4.2C540.813 4.2 541.626 4.38 542.346 4.74C543.066 5.1 543.639 5.66 544.066 6.42C544.506 7.18 544.726 8.15333 544.726 9.34C544.726 10.5267 544.506 11.5067 544.066 12.28C543.639 13.04 543.066 13.6067 542.346 13.98C541.626 14.34 540.813 14.52 539.906 14.52ZM540.286 12.4C540.913 12.4 541.473 12.2733 541.966 12.02C542.459 11.7533 542.839 11.3933 543.106 10.94C543.386 10.4733 543.526 9.94 543.526 9.34C543.526 8.74 543.386 8.21333 543.106 7.76C542.839 7.29333 542.459 6.94 541.966 6.7C541.473 6.44667 540.913 6.32 540.286 6.32C539.659 6.32 539.093 6.44667 538.586 6.7C538.093 6.94 537.706 7.29333 537.426 7.76C537.159 8.21333 537.026 8.74 537.026 9.34C537.026 9.94 537.159 10.4733 537.426 10.94C537.706 11.3933 538.093 11.7533 538.586 12.02C539.093 12.2733 539.659 12.4 540.286 12.4ZM555.853 15V12.84L555.713 12.38V8.6C555.713 7.86667 555.493 7.3 555.053 6.9C554.613 6.48667 553.946 6.28 553.053 6.28C552.453 6.28 551.859 6.37333 551.273 6.56C550.699 6.74667 550.213 7.00667 549.813 7.34L548.833 5.52C549.406 5.08 550.086 4.75333 550.873 4.54C551.673 4.31333 552.499 4.2 553.353 4.2C554.899 4.2 556.093 4.57333 556.933 5.32C557.786 6.05333 558.213 7.19333 558.213 8.74V15H555.853ZM552.493 15.14C551.693 15.14 550.993 15.0067 550.393 14.74C549.793 14.46 549.326 14.08 548.993 13.6C548.673 13.1067 548.513 12.5533 548.513 11.94C548.513 11.34 548.653 10.8 548.933 10.32C549.226 9.84 549.699 9.46 550.353 9.18C551.006 8.9 551.873 8.76 552.953 8.76H556.053V10.42H553.133C552.279 10.42 551.706 10.56 551.413 10.84C551.119 11.1067 550.973 11.44 550.973 11.84C550.973 12.2933 551.153 12.6533 551.513 12.92C551.873 13.1867 552.373 13.32 553.013 13.32C553.626 13.32 554.173 13.18 554.653 12.9C555.146 12.62 555.499 12.2067 555.713 11.66L556.133 13.16C555.893 13.7867 555.459 14.2733 554.833 14.62C554.219 14.9667 553.439 15.14 552.493 15.14ZM561.421 15V0.159999H563.921V15H561.421Z" fill="black"/>
<path d="M274.586 19.02C274.066 19.02 273.546 18.9333 273.026 18.76C272.506 18.5867 272.073 18.3467 271.726 18.04L272.726 16.2C272.98 16.4267 273.266 16.6067 273.586 16.74C273.906 16.8733 274.233 16.94 274.566 16.94C275.02 16.94 275.386 16.8267 275.666 16.6C275.946 16.3733 276.206 15.9933 276.446 15.46L277.066 14.06L277.266 13.76L281.306 4.32H283.706L278.706 15.86C278.373 16.66 278 17.2933 277.586 17.76C277.186 18.2267 276.733 18.5533 276.226 18.74C275.733 18.9267 275.186 19.02 274.586 19.02ZM276.786 15.38L271.966 4.32H274.566L278.486 13.54L276.786 15.38ZM289.789 15.14C288.882 15.14 288.082 14.9733 287.389 14.64C286.696 14.2933 286.156 13.7733 285.769 13.08C285.382 12.3733 285.189 11.4867 285.189 10.42V4.32H287.689V10.08C287.689 11.04 287.902 11.76 288.329 12.24C288.769 12.7067 289.389 12.94 290.189 12.94C290.776 12.94 291.282 12.82 291.709 12.58C292.149 12.34 292.489 11.98 292.729 11.5C292.982 11.02 293.109 10.4267 293.109 9.72V4.32H295.609V15H293.229V12.12L293.649 13C293.289 13.6933 292.762 14.2267 292.069 14.6C291.376 14.96 290.616 15.14 289.789 15.14ZM312.362 4.2C313.216 4.2 313.969 4.36667 314.622 4.7C315.289 5.03333 315.809 5.54667 316.182 6.24C316.556 6.92 316.742 7.8 316.742 8.88V15H314.242V9.2C314.242 8.25333 314.036 7.54667 313.622 7.08C313.209 6.61333 312.616 6.38 311.842 6.38C311.296 6.38 310.809 6.5 310.382 6.74C309.969 6.98 309.642 7.33333 309.402 7.8C309.176 8.26667 309.062 8.86 309.062 9.58V15H306.562V9.2C306.562 8.25333 306.356 7.54667 305.942 7.08C305.529 6.61333 304.936 6.38 304.162 6.38C303.616 6.38 303.129 6.5 302.702 6.74C302.289 6.98 301.962 7.33333 301.722 7.8C301.496 8.26667 301.382 8.86 301.382 9.58V15H298.882V4.32H301.262V7.16L300.842 6.32C301.202 5.62667 301.722 5.1 302.402 4.74C303.096 4.38 303.882 4.2 304.762 4.2C305.762 4.2 306.629 4.44667 307.362 4.94C308.109 5.43333 308.602 6.18 308.842 7.18L307.862 6.84C308.209 6.04 308.782 5.4 309.582 4.92C310.382 4.44 311.309 4.2 312.362 4.2ZM333.417 4.2C334.27 4.2 335.024 4.36667 335.677 4.7C336.344 5.03333 336.864 5.54667 337.237 6.24C337.61 6.92 337.797 7.8 337.797 8.88V15H335.297V9.2C335.297 8.25333 335.09 7.54667 334.677 7.08C334.264 6.61333 333.67 6.38 332.897 6.38C332.35 6.38 331.864 6.5 331.437 6.74C331.024 6.98 330.697 7.33333 330.457 7.8C330.23 8.26667 330.117 8.86 330.117 9.58V15H327.617V9.2C327.617 8.25333 327.41 7.54667 326.997 7.08C326.584 6.61333 325.99 6.38 325.217 6.38C324.67 6.38 324.184 6.5 323.757 6.74C323.344 6.98 323.017 7.33333 322.777 7.8C322.55 8.26667 322.437 8.86 322.437 9.58V15H319.937V4.32H322.317V7.16L321.897 6.32C322.257 5.62667 322.777 5.1 323.457 4.74C324.15 4.38 324.937 4.2 325.817 4.2C326.817 4.2 327.684 4.44667 328.417 4.94C329.164 5.43333 329.657 6.18 329.897 7.18L328.917 6.84C329.264 6.04 329.837 5.4 330.637 4.92C331.437 4.44 332.364 4.2 333.417 4.2ZM341.676 19.02C341.156 19.02 340.636 18.9333 340.116 18.76C339.596 18.5867 339.163 18.3467 338.816 18.04L339.816 16.2C340.07 16.4267 340.356 16.6067 340.676 16.74C340.996 16.8733 341.323 16.94 341.656 16.94C342.11 16.94 342.476 16.8267 342.756 16.6C343.036 16.3733 343.296 15.9933 343.536 15.46L344.156 14.06L344.356 13.76L348.396 4.32H350.796L345.796 15.86C345.463 16.66 345.09 17.2933 344.676 17.76C344.276 18.2267 343.823 18.5533 343.316 18.74C342.823 18.9267 342.276 19.02 341.676 19.02ZM343.876 15.38L339.056 4.32H341.656L345.576 13.54L343.876 15.38Z" fill="#D2483D"/>
</svg>
