<svg width="107" height="29" viewBox="0 0 107 29" fill="none" xmlns="http://www.w3.org/2000/svg">
<path d="M0.984 5.2H4.296L6.864 15.256H6.912V5.2H9.264V22H6.552L3.384 9.736H3.336V22H0.984V5.2ZM15.0422 22.24C13.7462 22.24 12.7542 21.872 12.0662 21.136C11.3782 20.4 11.0342 19.36 11.0342 18.016V9.184C11.0342 7.84 11.3782 6.8 12.0662 6.064C12.7542 5.328 13.7462 4.96 15.0422 4.96C16.3382 4.96 17.3302 5.328 18.0182 6.064C18.7062 6.8 19.0502 7.84 19.0502 9.184V18.016C19.0502 19.36 18.7062 20.4 18.0182 21.136C17.3302 21.872 16.3382 22.24 15.0422 22.24ZM15.0422 19.84C15.9542 19.84 16.4102 19.288 16.4102 18.184V9.016C16.4102 7.912 15.9542 7.36 15.0422 7.36C14.1302 7.36 13.6742 7.912 13.6742 9.016V18.184C13.6742 19.288 14.1302 19.84 15.0422 19.84ZM24.2676 22.24C22.9876 22.24 22.0196 21.88 21.3636 21.16C20.7076 20.424 20.3796 19.376 20.3796 18.016V17.056H22.8756V18.208C22.8756 19.296 23.3316 19.84 24.2436 19.84C24.6916 19.84 25.0276 19.712 25.2516 19.456C25.4916 19.184 25.6116 18.752 25.6116 18.16C25.6116 17.456 25.4516 16.84 25.1316 16.312C24.8116 15.768 24.2196 15.12 23.3556 14.368C22.2676 13.408 21.5076 12.544 21.0756 11.776C20.6436 10.992 20.4276 10.112 20.4276 9.136C20.4276 7.808 20.7636 6.784 21.4356 6.064C22.1076 5.328 23.0836 4.96 24.3636 4.96C25.6276 4.96 26.5796 5.328 27.2196 6.064C27.8756 6.784 28.2036 7.824 28.2036 9.184V9.88H25.7076V9.016C25.7076 8.44 25.5956 8.024 25.3716 7.768C25.1476 7.496 24.8196 7.36 24.3876 7.36C23.5076 7.36 23.0676 7.896 23.0676 8.968C23.0676 9.576 23.2276 10.144 23.5476 10.672C23.8836 11.2 24.4836 11.84 25.3476 12.592C26.4516 13.552 27.2116 14.424 27.6276 15.208C28.0436 15.992 28.2516 16.912 28.2516 17.968C28.2516 19.344 27.9076 20.4 27.2196 21.136C26.5476 21.872 25.5636 22.24 24.2676 22.24ZM35.649 5.2H39.225L41.961 22H39.321L38.841 18.664V18.712H35.841L35.361 22H32.913L35.649 5.2ZM38.529 16.432L37.353 8.128H37.305L36.153 16.432H38.529ZM43.2418 5.2H47.2738C48.5858 5.2 49.5698 5.552 50.2258 6.256C50.8818 6.96 51.2098 7.992 51.2098 9.352V17.848C51.2098 19.208 50.8818 20.24 50.2258 20.944C49.5698 21.648 48.5858 22 47.2738 22H43.2418V5.2ZM47.2258 19.6C47.6578 19.6 47.9858 19.472 48.2098 19.216C48.4498 18.96 48.5698 18.544 48.5698 17.968V9.232C48.5698 8.656 48.4498 8.24 48.2098 7.984C47.9858 7.728 47.6578 7.6 47.2258 7.6H45.8818V19.6H47.2258ZM52.9918 5.2H56.9038C58.2638 5.2 59.2558 5.52 59.8798 6.16C60.5038 6.784 60.8158 7.752 60.8158 9.064V10.096C60.8158 11.84 60.2398 12.944 59.0878 13.408V13.456C59.7278 13.648 60.1758 14.04 60.4318 14.632C60.7038 15.224 60.8398 16.016 60.8398 17.008V19.96C60.8398 20.44 60.8558 20.832 60.8878 21.136C60.9198 21.424 60.9998 21.712 61.1278 22H58.4398C58.3438 21.728 58.2798 21.472 58.2478 21.232C58.2158 20.992 58.1998 20.56 58.1998 19.936V16.864C58.1998 16.096 58.0718 15.56 57.8158 15.256C57.5758 14.952 57.1518 14.8 56.5438 14.8H55.6318V22H52.9918V5.2ZM56.5918 12.4C57.1198 12.4 57.5118 12.264 57.7678 11.992C58.0398 11.72 58.1758 11.264 58.1758 10.624V9.328C58.1758 8.72 58.0638 8.28 57.8398 8.008C57.6318 7.736 57.2958 7.6 56.8318 7.6H55.6318V12.4H56.5918ZM62.6715 5.2H69.8715V7.6H65.3115V12.04H68.9355V14.44H65.3115V19.6H69.8715V22H62.6715V5.2ZM74.8691 22.24C73.5891 22.24 72.6211 21.88 71.9651 21.16C71.3091 20.424 70.9811 19.376 70.9811 18.016V17.056H73.4771V18.208C73.4771 19.296 73.9331 19.84 74.8451 19.84C75.2931 19.84 75.6291 19.712 75.8531 19.456C76.0931 19.184 76.2131 18.752 76.2131 18.16C76.2131 17.456 76.0531 16.84 75.7331 16.312C75.4131 15.768 74.8211 15.12 73.9571 14.368C72.8691 13.408 72.1091 12.544 71.6771 11.776C71.2451 10.992 71.0291 10.112 71.0291 9.136C71.0291 7.808 71.3651 6.784 72.0371 6.064C72.7091 5.328 73.6851 4.96 74.9651 4.96C76.2291 4.96 77.1811 5.328 77.8211 6.064C78.4771 6.784 78.8051 7.824 78.8051 9.184V9.88H76.3091V9.016C76.3091 8.44 76.1971 8.024 75.9731 7.768C75.7491 7.496 75.4211 7.36 74.9891 7.36C74.1091 7.36 73.6691 7.896 73.6691 8.968C73.6691 9.576 73.8291 10.144 74.1491 10.672C74.4851 11.2 75.0851 11.84 75.9491 12.592C77.0531 13.552 77.8131 14.424 78.2291 15.208C78.6451 15.992 78.8531 16.912 78.8531 17.968C78.8531 19.344 78.5091 20.4 77.8211 21.136C77.1491 21.872 76.1651 22.24 74.8691 22.24ZM83.7988 22.24C82.5188 22.24 81.5508 21.88 80.8948 21.16C80.2388 20.424 79.9108 19.376 79.9108 18.016V17.056H82.4068V18.208C82.4068 19.296 82.8628 19.84 83.7748 19.84C84.2228 19.84 84.5588 19.712 84.7828 19.456C85.0228 19.184 85.1428 18.752 85.1428 18.16C85.1428 17.456 84.9828 16.84 84.6628 16.312C84.3428 15.768 83.7508 15.12 82.8868 14.368C81.7988 13.408 81.0388 12.544 80.6068 11.776C80.1748 10.992 79.9588 10.112 79.9588 9.136C79.9588 7.808 80.2948 6.784 80.9668 6.064C81.6388 5.328 82.6148 4.96 83.8948 4.96C85.1588 4.96 86.1108 5.328 86.7508 6.064C87.4068 6.784 87.7348 7.824 87.7348 9.184V9.88H85.2388V9.016C85.2388 8.44 85.1268 8.024 84.9028 7.768C84.6788 7.496 84.3508 7.36 83.9188 7.36C83.0388 7.36 82.5988 7.896 82.5988 8.968C82.5988 9.576 82.7588 10.144 83.0788 10.672C83.4148 11.2 84.0148 11.84 84.8788 12.592C85.9828 13.552 86.7428 14.424 87.1588 15.208C87.5748 15.992 87.7828 16.912 87.7828 17.968C87.7828 19.344 87.4388 20.4 86.7508 21.136C86.0788 21.872 85.0948 22.24 83.7988 22.24ZM89.2965 5.2H96.4965V7.6H91.9365V12.04H95.5605V14.44H91.9365V19.6H96.4965V22H89.2965V5.2ZM101.494 22.24C100.214 22.24 99.2461 21.88 98.5901 21.16C97.9341 20.424 97.6061 19.376 97.6061 18.016V17.056H100.102V18.208C100.102 19.296 100.558 19.84 101.47 19.84C101.918 19.84 102.254 19.712 102.478 19.456C102.718 19.184 102.838 18.752 102.838 18.16C102.838 17.456 102.678 16.84 102.358 16.312C102.038 15.768 101.446 15.12 100.582 14.368C99.4941 13.408 98.7341 12.544 98.3021 11.776C97.8701 10.992 97.6541 10.112 97.6541 9.136C97.6541 7.808 97.9901 6.784 98.6621 6.064C99.3341 5.328 100.31 4.96 101.59 4.96C102.854 4.96 103.806 5.328 104.446 6.064C105.102 6.784 105.43 7.824 105.43 9.184V9.88H102.934V9.016C102.934 8.44 102.822 8.024 102.598 7.768C102.374 7.496 102.046 7.36 101.614 7.36C100.734 7.36 100.294 7.896 100.294 8.968C100.294 9.576 100.454 10.144 100.774 10.672C101.11 11.2 101.71 11.84 102.574 12.592C103.678 13.552 104.438 14.424 104.854 15.208C105.27 15.992 105.478 16.912 105.478 17.968C105.478 19.344 105.134 20.4 104.446 21.136C103.774 21.872 102.79 22.24 101.494 22.24Z" fill="black"/>
<line y1="27.5" x2="107" y2="27.5" stroke="#D2483D" stroke-width="3"/>
</svg>
