<svg width="324" height="29" viewBox="0 0 324 29" fill="none" xmlns="http://www.w3.org/2000/svg">
<path d="M0.984 5.2H4.896C6.256 5.2 7.248 5.52 7.872 6.16C8.496 6.784 8.808 7.752 8.808 9.064V10.096C8.808 11.84 8.232 12.944 7.08 13.408V13.456C7.72 13.648 8.168 14.04 8.424 14.632C8.696 15.224 8.832 16.016 8.832 17.008V19.96C8.832 20.44 8.848 20.832 8.88 21.136C8.912 21.424 8.992 21.712 9.12 22H6.432C6.336 21.728 6.272 21.472 6.24 21.232C6.208 20.992 6.192 20.56 6.192 19.936V16.864C6.192 16.096 6.064 15.56 5.808 15.256C5.568 14.952 5.144 14.8 4.536 14.8H3.624V22H0.984V5.2ZM4.584 12.4C5.112 12.4 5.504 12.264 5.76 11.992C6.032 11.72 6.168 11.264 6.168 10.624V9.328C6.168 8.72 6.056 8.28 5.832 8.008C5.624 7.736 5.288 7.6 4.824 7.6H3.624V12.4H4.584ZM10.6637 5.2H17.8637V7.6H13.3037V12.04H16.9277V14.44H13.3037V19.6H17.8637V22H10.6637V5.2ZM21.4464 7.6H18.6864V5.2H26.8464V7.6H24.0864V22H21.4464V7.6ZM28.1246 5.2H32.0366C33.3966 5.2 34.3886 5.52 35.0126 6.16C35.6366 6.784 35.9486 7.752 35.9486 9.064V10.096C35.9486 11.84 35.3726 12.944 34.2206 13.408V13.456C34.8606 13.648 35.3086 14.04 35.5646 14.632C35.8366 15.224 35.9726 16.016 35.9726 17.008V19.96C35.9726 20.44 35.9886 20.832 36.0206 21.136C36.0526 21.424 36.1326 21.712 36.2606 22H33.5726C33.4766 21.728 33.4126 21.472 33.3806 21.232C33.3486 20.992 33.3326 20.56 33.3326 19.936V16.864C33.3326 16.096 33.2046 15.56 32.9486 15.256C32.7086 14.952 32.2846 14.8 31.6766 14.8H30.7646V22H28.1246V5.2ZM31.7246 12.4C32.2526 12.4 32.6446 12.264 32.9006 11.992C33.1726 11.72 33.3086 11.264 33.3086 10.624V9.328C33.3086 8.72 33.1966 8.28 32.9726 8.008C32.7646 7.736 32.4286 7.6 31.9646 7.6H30.7646V12.4H31.7246ZM41.6203 22.24C40.3243 22.24 39.3323 21.872 38.6443 21.136C37.9563 20.4 37.6123 19.36 37.6123 18.016V9.184C37.6123 7.84 37.9563 6.8 38.6443 6.064C39.3323 5.328 40.3243 4.96 41.6203 4.96C42.9163 4.96 43.9083 5.328 44.5963 6.064C45.2843 6.8 45.6283 7.84 45.6283 9.184V18.016C45.6283 19.36 45.2843 20.4 44.5963 21.136C43.9083 21.872 42.9163 22.24 41.6203 22.24ZM41.6203 19.84C42.5323 19.84 42.9883 19.288 42.9883 18.184V9.016C42.9883 7.912 42.5323 7.36 41.6203 7.36C40.7083 7.36 40.2523 7.912 40.2523 9.016V18.184C40.2523 19.288 40.7083 19.84 41.6203 19.84ZM51.2537 22.24C49.9737 22.24 48.9977 21.88 48.3257 21.16C47.6537 20.424 47.3177 19.376 47.3177 18.016V5.2H49.9577V18.208C49.9577 18.784 50.0697 19.2 50.2937 19.456C50.5337 19.712 50.8697 19.84 51.3017 19.84C51.7337 19.84 52.0617 19.712 52.2857 19.456C52.5257 19.2 52.6457 18.784 52.6457 18.208V5.2H55.1897V18.016C55.1897 19.376 54.8537 20.424 54.1817 21.16C53.5097 21.88 52.5337 22.24 51.2537 22.24ZM56.3739 5.2H59.0379L60.7659 18.232H60.8139L62.5419 5.2H64.9659L62.4219 22H58.9179L56.3739 5.2ZM66.234 5.2H73.434V7.6H68.874V12.04H72.498V14.44H68.874V19.6H73.434V22H66.234V5.2ZM74.4716 19.648L79.3676 7.6H74.7116V5.2H82.1996V7.552L77.3036 19.6H82.1996V22H74.4716V19.648ZM82.9594 12.4H88.2394V14.8H82.9594V12.4ZM89.8121 5.2H93.1241L95.6921 15.256H95.7401V5.2H98.0921V22H95.3801L92.2121 9.736H92.1641V22H89.8121V5.2ZM103.87 22.24C102.574 22.24 101.582 21.872 100.894 21.136C100.206 20.4 99.8623 19.36 99.8623 18.016V9.184C99.8623 7.84 100.206 6.8 100.894 6.064C101.582 5.328 102.574 4.96 103.87 4.96C105.166 4.96 106.158 5.328 106.846 6.064C107.534 6.8 107.878 7.84 107.878 9.184V18.016C107.878 19.36 107.534 20.4 106.846 21.136C106.158 21.872 105.166 22.24 103.87 22.24ZM103.87 19.84C104.782 19.84 105.238 19.288 105.238 18.184V9.016C105.238 7.912 104.782 7.36 103.87 7.36C102.958 7.36 102.502 7.912 102.502 9.016V18.184C102.502 19.288 102.958 19.84 103.87 19.84ZM113.504 22.24C112.224 22.24 111.248 21.88 110.576 21.16C109.904 20.424 109.568 19.376 109.568 18.016V5.2H112.208V18.208C112.208 18.784 112.32 19.2 112.544 19.456C112.784 19.712 113.12 19.84 113.552 19.84C113.984 19.84 114.312 19.712 114.536 19.456C114.776 19.2 114.896 18.784 114.896 18.208V5.2H117.44V18.016C117.44 19.376 117.104 20.424 116.432 21.16C115.76 21.88 114.784 22.24 113.504 22.24ZM122.752 22.24C121.472 22.24 120.504 21.88 119.848 21.16C119.192 20.424 118.864 19.376 118.864 18.016V17.056H121.36V18.208C121.36 19.296 121.816 19.84 122.728 19.84C123.176 19.84 123.512 19.712 123.736 19.456C123.976 19.184 124.096 18.752 124.096 18.16C124.096 17.456 123.936 16.84 123.616 16.312C123.296 15.768 122.704 15.12 121.84 14.368C120.752 13.408 119.992 12.544 119.56 11.776C119.128 10.992 118.912 10.112 118.912 9.136C118.912 7.808 119.248 6.784 119.92 6.064C120.592 5.328 121.568 4.96 122.848 4.96C124.112 4.96 125.064 5.328 125.704 6.064C126.36 6.784 126.688 7.824 126.688 9.184V9.88H124.192V9.016C124.192 8.44 124.08 8.024 123.856 7.768C123.632 7.496 123.304 7.36 122.872 7.36C121.992 7.36 121.552 7.896 121.552 8.968C121.552 9.576 121.712 10.144 122.032 10.672C122.368 11.2 122.968 11.84 123.832 12.592C124.936 13.552 125.696 14.424 126.112 15.208C126.528 15.992 126.736 16.912 126.736 17.968C126.736 19.344 126.392 20.4 125.704 21.136C125.032 21.872 124.048 22.24 122.752 22.24ZM135.525 22.24C134.245 22.24 133.277 21.88 132.621 21.16C131.965 20.424 131.637 19.376 131.637 18.016V17.056H134.133V18.208C134.133 19.296 134.589 19.84 135.501 19.84C135.949 19.84 136.285 19.712 136.509 19.456C136.749 19.184 136.869 18.752 136.869 18.16C136.869 17.456 136.709 16.84 136.389 16.312C136.069 15.768 135.477 15.12 134.613 14.368C133.525 13.408 132.765 12.544 132.333 11.776C131.901 10.992 131.685 10.112 131.685 9.136C131.685 7.808 132.021 6.784 132.693 6.064C133.365 5.328 134.341 4.96 135.621 4.96C136.885 4.96 137.837 5.328 138.477 6.064C139.133 6.784 139.461 7.824 139.461 9.184V9.88H136.965V9.016C136.965 8.44 136.853 8.024 136.629 7.768C136.405 7.496 136.077 7.36 135.645 7.36C134.765 7.36 134.325 7.896 134.325 8.968C134.325 9.576 134.485 10.144 134.805 10.672C135.141 11.2 135.741 11.84 136.605 12.592C137.709 13.552 138.469 14.424 138.885 15.208C139.301 15.992 139.509 16.912 139.509 17.968C139.509 19.344 139.165 20.4 138.477 21.136C137.805 21.872 136.821 22.24 135.525 22.24ZM144.863 22.24C143.583 22.24 142.607 21.88 141.935 21.16C141.263 20.424 140.927 19.376 140.927 18.016V5.2H143.567V18.208C143.567 18.784 143.679 19.2 143.903 19.456C144.143 19.712 144.479 19.84 144.911 19.84C145.343 19.84 145.671 19.712 145.895 19.456C146.135 19.2 146.255 18.784 146.255 18.208V5.2H148.799V18.016C148.799 19.376 148.463 20.424 147.791 21.16C147.119 21.88 146.143 22.24 144.863 22.24ZM150.679 5.2H154.591C155.951 5.2 156.943 5.52 157.567 6.16C158.191 6.784 158.503 7.752 158.503 9.064V10.096C158.503 11.84 157.927 12.944 156.775 13.408V13.456C157.415 13.648 157.863 14.04 158.119 14.632C158.391 15.224 158.527 16.016 158.527 17.008V19.96C158.527 20.44 158.543 20.832 158.575 21.136C158.607 21.424 158.687 21.712 158.815 22H156.127C156.031 21.728 155.967 21.472 155.935 21.232C155.903 20.992 155.887 20.56 155.887 19.936V16.864C155.887 16.096 155.759 15.56 155.503 15.256C155.263 14.952 154.839 14.8 154.231 14.8H153.319V22H150.679V5.2ZM154.279 12.4C154.807 12.4 155.199 12.264 155.455 11.992C155.727 11.72 155.863 11.264 155.863 10.624V9.328C155.863 8.72 155.751 8.28 155.527 8.008C155.319 7.736 154.983 7.6 154.519 7.6H153.319V12.4H154.279ZM164.203 5.2H166.843V19.6H171.187V22H164.203V5.2ZM172.453 5.2H179.653V7.6H175.093V12.04H178.717V14.44H175.093V19.6H179.653V22H172.453V5.2ZM184.65 22.24C183.37 22.24 182.402 21.88 181.746 21.16C181.09 20.424 180.762 19.376 180.762 18.016V17.056H183.258V18.208C183.258 19.296 183.714 19.84 184.626 19.84C185.074 19.84 185.41 19.712 185.634 19.456C185.874 19.184 185.994 18.752 185.994 18.16C185.994 17.456 185.834 16.84 185.514 16.312C185.194 15.768 184.602 15.12 183.738 14.368C182.65 13.408 181.89 12.544 181.458 11.776C181.026 10.992 180.81 10.112 180.81 9.136C180.81 7.808 181.146 6.784 181.818 6.064C182.49 5.328 183.466 4.96 184.746 4.96C186.01 4.96 186.962 5.328 187.602 6.064C188.258 6.784 188.586 7.824 188.586 9.184V9.88H186.09V9.016C186.09 8.44 185.978 8.024 185.754 7.768C185.53 7.496 185.202 7.36 184.77 7.36C183.89 7.36 183.45 7.896 183.45 8.968C183.45 9.576 183.61 10.144 183.93 10.672C184.266 11.2 184.866 11.84 185.73 12.592C186.834 13.552 187.594 14.424 188.01 15.208C188.426 15.992 188.634 16.912 188.634 17.968C188.634 19.344 188.29 20.4 187.602 21.136C186.93 21.872 185.946 22.24 184.65 22.24ZM193.992 5.2H197.904C199.264 5.2 200.256 5.52 200.88 6.16C201.504 6.784 201.816 7.752 201.816 9.064V10.096C201.816 11.84 201.24 12.944 200.088 13.408V13.456C200.728 13.648 201.176 14.04 201.432 14.632C201.704 15.224 201.84 16.016 201.84 17.008V19.96C201.84 20.44 201.856 20.832 201.888 21.136C201.92 21.424 202 21.712 202.128 22H199.44C199.344 21.728 199.28 21.472 199.248 21.232C199.216 20.992 199.2 20.56 199.2 19.936V16.864C199.2 16.096 199.072 15.56 198.816 15.256C198.576 14.952 198.152 14.8 197.544 14.8H196.632V22H193.992V5.2ZM197.592 12.4C198.12 12.4 198.512 12.264 198.768 11.992C199.04 11.72 199.176 11.264 199.176 10.624V9.328C199.176 8.72 199.064 8.28 198.84 8.008C198.632 7.736 198.296 7.6 197.832 7.6H196.632V12.4H197.592ZM203.672 5.2H210.872V7.6H206.312V12.04H209.936V14.44H206.312V19.6H210.872V22H203.672V5.2ZM207.512 1.312H210.392L207.824 4.072H205.832L207.512 1.312ZM215.869 22.24C214.589 22.24 213.621 21.88 212.965 21.16C212.309 20.424 211.981 19.376 211.981 18.016V17.056H214.477V18.208C214.477 19.296 214.933 19.84 215.845 19.84C216.293 19.84 216.629 19.712 216.853 19.456C217.093 19.184 217.213 18.752 217.213 18.16C217.213 17.456 217.053 16.84 216.733 16.312C216.413 15.768 215.821 15.12 214.957 14.368C213.869 13.408 213.109 12.544 212.677 11.776C212.245 10.992 212.029 10.112 212.029 9.136C212.029 7.808 212.365 6.784 213.037 6.064C213.709 5.328 214.685 4.96 215.965 4.96C217.229 4.96 218.181 5.328 218.821 6.064C219.477 6.784 219.805 7.824 219.805 9.184V9.88H217.309V9.016C217.309 8.44 217.197 8.024 216.973 7.768C216.749 7.496 216.421 7.36 215.989 7.36C215.109 7.36 214.669 7.896 214.669 8.968C214.669 9.576 214.829 10.144 215.149 10.672C215.485 11.2 216.085 11.84 216.949 12.592C218.053 13.552 218.813 14.424 219.229 15.208C219.645 15.992 219.853 16.912 219.853 17.968C219.853 19.344 219.509 20.4 218.821 21.136C218.149 21.872 217.165 22.24 215.869 22.24ZM221.367 5.2H228.567V7.6H224.007V12.04H227.631V14.44H224.007V19.6H228.567V22H221.367V5.2ZM232.126 5.2H235.702L238.438 22H235.798L235.318 18.664V18.712H232.318L231.838 22H229.39L232.126 5.2ZM235.006 16.432L233.83 8.128H233.782L232.63 16.432H235.006ZM243.512 22.24C242.232 22.24 241.256 21.88 240.584 21.16C239.912 20.424 239.576 19.376 239.576 18.016V5.2H242.215V18.208C242.215 18.784 242.328 19.2 242.552 19.456C242.792 19.712 243.128 19.84 243.56 19.84C243.992 19.84 244.32 19.712 244.544 19.456C244.784 19.2 244.904 18.784 244.904 18.208V5.2H247.448V18.016C247.448 19.376 247.112 20.424 246.44 21.16C245.768 21.88 244.792 22.24 243.512 22.24ZM251.632 13.408L248.728 5.2H251.512L253.288 10.624H253.336L255.16 5.2H257.656L254.752 13.408L257.8 22H255.016L253.096 16.144H253.048L251.08 22H248.584L251.632 13.408ZM266.33 22.24C265.05 22.24 264.082 21.88 263.426 21.16C262.77 20.424 262.442 19.376 262.442 18.016V17.056H264.938V18.208C264.938 19.296 265.394 19.84 266.306 19.84C266.754 19.84 267.09 19.712 267.314 19.456C267.554 19.184 267.674 18.752 267.674 18.16C267.674 17.456 267.514 16.84 267.194 16.312C266.874 15.768 266.282 15.12 265.418 14.368C264.33 13.408 263.57 12.544 263.138 11.776C262.706 10.992 262.49 10.112 262.49 9.136C262.49 7.808 262.826 6.784 263.498 6.064C264.17 5.328 265.146 4.96 266.426 4.96C267.69 4.96 268.642 5.328 269.282 6.064C269.938 6.784 270.266 7.824 270.266 9.184V9.88H267.77V9.016C267.77 8.44 267.658 8.024 267.434 7.768C267.21 7.496 266.882 7.36 266.45 7.36C265.57 7.36 265.13 7.896 265.13 8.968C265.13 9.576 265.29 10.144 265.61 10.672C265.946 11.2 266.546 11.84 267.41 12.592C268.514 13.552 269.274 14.424 269.69 15.208C270.106 15.992 270.314 16.912 270.314 17.968C270.314 19.344 269.97 20.4 269.282 21.136C268.61 21.872 267.626 22.24 266.33 22.24ZM275.644 22.24C274.348 22.24 273.356 21.872 272.668 21.136C271.98 20.4 271.636 19.36 271.636 18.016V9.184C271.636 7.84 271.98 6.8 272.668 6.064C273.356 5.328 274.348 4.96 275.644 4.96C276.94 4.96 277.932 5.328 278.62 6.064C279.308 6.8 279.652 7.84 279.652 9.184V18.016C279.652 19.36 279.308 20.4 278.62 21.136C277.932 21.872 276.94 22.24 275.644 22.24ZM275.644 19.84C276.556 19.84 277.012 19.288 277.012 18.184V9.016C277.012 7.912 276.556 7.36 275.644 7.36C274.732 7.36 274.276 7.912 274.276 9.016V18.184C274.276 19.288 274.732 19.84 275.644 19.84ZM285.157 22.24C283.893 22.24 282.925 21.88 282.253 21.16C281.597 20.44 281.269 19.424 281.269 18.112V9.088C281.269 7.776 281.597 6.76 282.253 6.04C282.925 5.32 283.893 4.96 285.157 4.96C286.421 4.96 287.381 5.32 288.037 6.04C288.709 6.76 289.045 7.776 289.045 9.088V10.864H286.549V8.92C286.549 7.88 286.109 7.36 285.229 7.36C284.349 7.36 283.909 7.88 283.909 8.92V18.304C283.909 19.328 284.349 19.84 285.229 19.84C286.109 19.84 286.549 19.328 286.549 18.304V15.736H289.045V18.112C289.045 19.424 288.709 20.44 288.037 21.16C287.381 21.88 286.421 22.24 285.157 22.24ZM290.625 5.2H293.265V22H290.625V5.2ZM297.282 5.2H300.858L303.594 22H300.954L300.474 18.664V18.712H297.474L296.994 22H294.546L297.282 5.2ZM300.162 16.432L298.986 8.128H298.938L297.786 16.432H300.162ZM308.668 22.24C307.388 22.24 306.412 21.88 305.74 21.16C305.068 20.424 304.732 19.376 304.732 18.016V5.2H307.372V18.208C307.372 18.784 307.484 19.2 307.708 19.456C307.948 19.712 308.284 19.84 308.716 19.84C309.148 19.84 309.476 19.712 309.7 19.456C309.94 19.2 310.06 18.784 310.06 18.208V5.2H312.604V18.016C312.604 19.376 312.268 20.424 311.596 21.16C310.924 21.88 309.948 22.24 308.668 22.24ZM316.789 13.408L313.885 5.2H316.669L318.445 10.624H318.493L320.317 5.2H322.813L319.909 13.408L322.957 22H320.173L318.253 16.144H318.205L316.237 22H313.741L316.789 13.408Z" fill="black"/>
<line y1="27.5" x2="324" y2="27.5" stroke="#D2483D" stroke-width="3"/>
</svg>
