<svg width="127" height="29" viewBox="0 0 127 29" fill="none" xmlns="http://www.w3.org/2000/svg">
<path d="M4.704 22.24C3.44 22.24 2.472 21.88 1.8 21.16C1.144 20.44 0.816 19.424 0.816 18.112V9.088C0.816 7.776 1.144 6.76 1.8 6.04C2.472 5.32 3.44 4.96 4.704 4.96C5.968 4.96 6.928 5.32 7.584 6.04C8.256 6.76 8.592 7.776 8.592 9.088V10.864H6.096V8.92C6.096 7.88 5.656 7.36 4.776 7.36C3.896 7.36 3.456 7.88 3.456 8.92V18.304C3.456 19.328 3.896 19.84 4.776 19.84C5.656 19.84 6.096 19.328 6.096 18.304V15.736H8.592V18.112C8.592 19.424 8.256 20.44 7.584 21.16C6.928 21.88 5.968 22.24 4.704 22.24ZM14.0344 22.24C12.7384 22.24 11.7464 21.872 11.0584 21.136C10.3704 20.4 10.0264 19.36 10.0264 18.016V9.184C10.0264 7.84 10.3704 6.8 11.0584 6.064C11.7464 5.328 12.7384 4.96 14.0344 4.96C15.3304 4.96 16.3224 5.328 17.0104 6.064C17.6984 6.8 18.0424 7.84 18.0424 9.184V18.016C18.0424 19.36 17.6984 20.4 17.0104 21.136C16.3224 21.872 15.3304 22.24 14.0344 22.24ZM14.0344 19.84C14.9464 19.84 15.4024 19.288 15.4024 18.184V9.016C15.4024 7.912 14.9464 7.36 14.0344 7.36C13.1224 7.36 12.6664 7.912 12.6664 9.016V18.184C12.6664 19.288 13.1224 19.84 14.0344 19.84ZM19.8278 5.2H23.1398L25.7078 15.256H25.7558V5.2H28.1078V22H25.3958L22.2278 9.736H22.1798V22H19.8278V5.2ZM32.1339 7.6H29.3739V5.2H37.5339V7.6H34.7739V22H32.1339V7.6ZM39.7506 5.2H43.3266L46.0626 22H43.4226L42.9426 18.664V18.712H39.9426L39.4626 22H37.0146L39.7506 5.2ZM42.6306 16.432L41.4546 8.128H41.4066L40.2546 16.432H42.6306ZM51.0165 22.24C49.7525 22.24 48.7845 21.88 48.1125 21.16C47.4565 20.44 47.1285 19.424 47.1285 18.112V9.088C47.1285 7.776 47.4565 6.76 48.1125 6.04C48.7845 5.32 49.7525 4.96 51.0165 4.96C52.2805 4.96 53.2405 5.32 53.8965 6.04C54.5685 6.76 54.9045 7.776 54.9045 9.088V10.864H52.4085V8.92C52.4085 7.88 51.9685 7.36 51.0885 7.36C50.2085 7.36 49.7685 7.88 49.7685 8.92V18.304C49.7685 19.328 50.2085 19.84 51.0885 19.84C51.9685 19.84 52.4085 19.328 52.4085 18.304V15.736H54.9045V18.112C54.9045 19.424 54.5685 20.44 53.8965 21.16C53.2405 21.88 52.2805 22.24 51.0165 22.24ZM58.548 7.6H55.788V5.2H63.948V7.6H61.188V22H58.548V7.6ZM65.2262 5.2H72.4262V7.6H67.8662V12.04H71.4902V14.44H67.8662V19.6H72.4262V22H65.2262V5.2ZM73.4638 19.648L78.3598 7.6H73.7038V5.2H81.1918V7.552L76.2958 19.6H81.1918V22H73.4638V19.648ZM81.9516 12.4H87.2316V14.8H81.9516V12.4ZM88.8043 5.2H92.1163L94.6843 15.256H94.7323V5.2H97.0843V22H94.3723L91.2043 9.736H91.1563V22H88.8043V5.2ZM102.863 22.24C101.567 22.24 100.575 21.872 99.8865 21.136C99.1985 20.4 98.8545 19.36 98.8545 18.016V9.184C98.8545 7.84 99.1985 6.8 99.8865 6.064C100.575 5.328 101.567 4.96 102.863 4.96C104.159 4.96 105.151 5.328 105.839 6.064C106.527 6.8 106.871 7.84 106.871 9.184V18.016C106.871 19.36 106.527 20.4 105.839 21.136C105.151 21.872 104.159 22.24 102.863 22.24ZM102.863 19.84C103.775 19.84 104.23 19.288 104.23 18.184V9.016C104.23 7.912 103.775 7.36 102.863 7.36C101.951 7.36 101.495 7.912 101.495 9.016V18.184C101.495 19.288 101.951 19.84 102.863 19.84ZM112.496 22.24C111.216 22.24 110.24 21.88 109.568 21.16C108.896 20.424 108.56 19.376 108.56 18.016V5.2H111.2V18.208C111.2 18.784 111.312 19.2 111.536 19.456C111.776 19.712 112.112 19.84 112.544 19.84C112.976 19.84 113.304 19.712 113.528 19.456C113.768 19.2 113.888 18.784 113.888 18.208V5.2H116.432V18.016C116.432 19.376 116.096 20.424 115.424 21.16C114.752 21.88 113.776 22.24 112.496 22.24ZM121.744 22.24C120.464 22.24 119.496 21.88 118.84 21.16C118.184 20.424 117.856 19.376 117.856 18.016V17.056H120.352V18.208C120.352 19.296 120.808 19.84 121.72 19.84C122.168 19.84 122.504 19.712 122.728 19.456C122.968 19.184 123.088 18.752 123.088 18.16C123.088 17.456 122.928 16.84 122.608 16.312C122.288 15.768 121.696 15.12 120.832 14.368C119.744 13.408 118.984 12.544 118.552 11.776C118.12 10.992 117.904 10.112 117.904 9.136C117.904 7.808 118.24 6.784 118.912 6.064C119.584 5.328 120.56 4.96 121.84 4.96C123.104 4.96 124.056 5.328 124.696 6.064C125.352 6.784 125.68 7.824 125.68 9.184V9.88H123.184V9.016C123.184 8.44 123.072 8.024 122.848 7.768C122.624 7.496 122.296 7.36 121.864 7.36C120.984 7.36 120.544 7.896 120.544 8.968C120.544 9.576 120.704 10.144 121.024 10.672C121.36 11.2 121.96 11.84 122.824 12.592C123.928 13.552 124.688 14.424 125.104 15.208C125.52 15.992 125.728 16.912 125.728 17.968C125.728 19.344 125.384 20.4 124.696 21.136C124.024 21.872 123.04 22.24 121.744 22.24Z" fill="black"/>
<line y1="27.5" x2="127" y2="27.5" stroke="#D2483D" stroke-width="3"/>
</svg>
