<svg width="1440" height="216" viewBox="0 0 1440 216" fill="none" xmlns="http://www.w3.org/2000/svg">
<rect width="1440" height="216" fill="#D2483D"/>
<path d="M593.36 79.2C591.947 79.2 590.667 78.8933 589.52 78.28C588.387 77.6533 587.493 76.7933 586.84 75.7C586.2 74.6067 585.88 73.3733 585.88 72C585.88 70.6267 586.207 69.3933 586.86 68.3C587.513 67.2067 588.407 66.3533 589.54 65.74C590.687 65.1133 591.967 64.8 593.38 64.8C594.527 64.8 595.573 65 596.52 65.4C597.467 65.8 598.267 66.38 598.92 67.14L597.24 68.72C596.227 67.6267 594.98 67.08 593.5 67.08C592.54 67.08 591.68 67.2933 590.92 67.72C590.16 68.1333 589.567 68.7133 589.14 69.46C588.713 70.2067 588.5 71.0533 588.5 72C588.5 72.9467 588.713 73.7933 589.14 74.54C589.567 75.2867 590.16 75.8733 590.92 76.3C591.68 76.7133 592.54 76.92 593.5 76.92C594.98 76.92 596.227 76.3667 597.24 75.26L598.92 76.86C598.267 77.62 597.46 78.2 596.5 78.6C595.553 79 594.507 79.2 593.36 79.2ZM605.581 79.14C604.501 79.14 603.527 78.9067 602.661 78.44C601.794 77.9733 601.114 77.3267 600.621 76.5C600.141 75.66 599.901 74.7133 599.901 73.66C599.901 72.6067 600.141 71.6667 600.621 70.84C601.114 70.0133 601.794 69.3667 602.661 68.9C603.527 68.4333 604.501 68.2 605.581 68.2C606.674 68.2 607.654 68.4333 608.521 68.9C609.387 69.3667 610.061 70.0133 610.541 70.84C611.034 71.6667 611.281 72.6067 611.281 73.66C611.281 74.7133 611.034 75.66 610.541 76.5C610.061 77.3267 609.387 77.9733 608.521 78.44C607.654 78.9067 606.674 79.14 605.581 79.14ZM605.581 77C606.501 77 607.261 76.6933 607.861 76.08C608.461 75.4667 608.761 74.66 608.761 73.66C608.761 72.66 608.461 71.8533 607.861 71.24C607.261 70.6267 606.501 70.32 605.581 70.32C604.661 70.32 603.901 70.6267 603.301 71.24C602.714 71.8533 602.421 72.66 602.421 73.66C602.421 74.66 602.714 75.4667 603.301 76.08C603.901 76.6933 604.661 77 605.581 77ZM627.151 68.2C628.498 68.2 629.565 68.5933 630.351 69.38C631.138 70.1533 631.531 71.32 631.531 72.88V79H629.031V73.2C629.031 72.2667 628.825 71.5667 628.411 71.1C627.998 70.62 627.405 70.38 626.631 70.38C625.791 70.38 625.118 70.66 624.611 71.22C624.105 71.7667 623.851 72.5533 623.851 73.58V79H621.351V73.2C621.351 72.2667 621.145 71.5667 620.731 71.1C620.318 70.62 619.725 70.38 618.951 70.38C618.098 70.38 617.418 70.6533 616.911 71.2C616.418 71.7467 616.171 72.54 616.171 73.58V79H613.671V68.32H616.051V69.68C616.451 69.2 616.951 68.8333 617.551 68.58C618.151 68.3267 618.818 68.2 619.551 68.2C620.351 68.2 621.058 68.3533 621.671 68.66C622.298 68.9533 622.791 69.3933 623.151 69.98C623.591 69.42 624.158 68.9867 624.851 68.68C625.545 68.36 626.311 68.2 627.151 68.2ZM648.206 68.2C649.553 68.2 650.619 68.5933 651.406 69.38C652.193 70.1533 652.586 71.32 652.586 72.88V79H650.086V73.2C650.086 72.2667 649.879 71.5667 649.466 71.1C649.053 70.62 648.459 70.38 647.686 70.38C646.846 70.38 646.173 70.66 645.666 71.22C645.159 71.7667 644.906 72.5533 644.906 73.58V79H642.406V73.2C642.406 72.2667 642.199 71.5667 641.786 71.1C641.373 70.62 640.779 70.38 640.006 70.38C639.153 70.38 638.473 70.6533 637.966 71.2C637.473 71.7467 637.226 72.54 637.226 73.58V79H634.726V68.32H637.106V69.68C637.506 69.2 638.006 68.8333 638.606 68.58C639.206 68.3267 639.873 68.2 640.606 68.2C641.406 68.2 642.113 68.3533 642.726 68.66C643.353 68.9533 643.846 69.3933 644.206 69.98C644.646 69.42 645.213 68.9867 645.906 68.68C646.599 68.36 647.366 68.2 648.206 68.2ZM659.861 68.2C661.434 68.2 662.634 68.58 663.461 69.34C664.301 70.0867 664.721 71.22 664.721 72.74V79H662.361V77.7C662.054 78.1667 661.614 78.5267 661.041 78.78C660.481 79.02 659.801 79.14 659.001 79.14C658.201 79.14 657.501 79.0067 656.901 78.74C656.301 78.46 655.834 78.08 655.501 77.6C655.181 77.1067 655.021 76.5533 655.021 75.94C655.021 74.98 655.374 74.2133 656.081 73.64C656.801 73.0533 657.927 72.76 659.461 72.76H662.221V72.6C662.221 71.8533 661.994 71.28 661.541 70.88C661.101 70.48 660.441 70.28 659.561 70.28C658.961 70.28 658.367 70.3733 657.781 70.56C657.207 70.7467 656.721 71.0067 656.321 71.34L655.341 69.52C655.901 69.0933 656.574 68.7667 657.361 68.54C658.147 68.3133 658.981 68.2 659.861 68.2ZM659.521 77.32C660.147 77.32 660.701 77.18 661.181 76.9C661.674 76.6067 662.021 76.1933 662.221 75.66V74.42H659.641C658.201 74.42 657.481 74.8933 657.481 75.84C657.481 76.2933 657.661 76.6533 658.021 76.92C658.381 77.1867 658.881 77.32 659.521 77.32ZM673.989 68.2C675.336 68.2 676.416 68.5933 677.229 69.38C678.042 70.1667 678.449 71.3333 678.449 72.88V79H675.949V73.2C675.949 72.2667 675.729 71.5667 675.289 71.1C674.849 70.62 674.222 70.38 673.409 70.38C672.489 70.38 671.762 70.66 671.229 71.22C670.696 71.7667 670.429 72.56 670.429 73.6V79H667.929V68.32H670.309V69.7C670.722 69.2067 671.242 68.8333 671.869 68.58C672.496 68.3267 673.202 68.2 673.989 68.2ZM692.178 64.16V79H689.778V77.62C689.365 78.1267 688.851 78.5067 688.238 78.76C687.638 79.0133 686.971 79.14 686.238 79.14C685.211 79.14 684.285 78.9133 683.458 78.46C682.645 78.0067 682.005 77.3667 681.538 76.54C681.071 75.7 680.838 74.74 680.838 73.66C680.838 72.58 681.071 71.6267 681.538 70.8C682.005 69.9733 682.645 69.3333 683.458 68.88C684.285 68.4267 685.211 68.2 686.238 68.2C686.945 68.2 687.591 68.32 688.178 68.56C688.765 68.8 689.265 69.16 689.678 69.64V64.16H692.178ZM686.538 77C687.138 77 687.678 76.8667 688.158 76.6C688.638 76.32 689.018 75.9267 689.298 75.42C689.578 74.9133 689.718 74.3267 689.718 73.66C689.718 72.9933 689.578 72.4067 689.298 71.9C689.018 71.3933 688.638 71.0067 688.158 70.74C687.678 70.46 687.138 70.32 686.538 70.32C685.938 70.32 685.398 70.46 684.918 70.74C684.438 71.0067 684.058 71.3933 683.778 71.9C683.498 72.4067 683.358 72.9933 683.358 73.66C683.358 74.3267 683.498 74.9133 683.778 75.42C684.058 75.9267 684.438 76.32 684.918 76.6C685.398 76.8667 685.938 77 686.538 77ZM705.489 73.72C705.489 73.8933 705.475 74.14 705.449 74.46H697.069C697.215 75.2467 697.595 75.8733 698.209 76.34C698.835 76.7933 699.609 77.02 700.529 77.02C701.702 77.02 702.669 76.6333 703.429 75.86L704.769 77.4C704.289 77.9733 703.682 78.4067 702.949 78.7C702.215 78.9933 701.389 79.14 700.469 79.14C699.295 79.14 698.262 78.9067 697.369 78.44C696.475 77.9733 695.782 77.3267 695.289 76.5C694.809 75.66 694.569 74.7133 694.569 73.66C694.569 72.62 694.802 71.6867 695.269 70.86C695.749 70.02 696.409 69.3667 697.249 68.9C698.089 68.4333 699.035 68.2 700.089 68.2C701.129 68.2 702.055 68.4333 702.869 68.9C703.695 69.3533 704.335 70 704.789 70.84C705.255 71.6667 705.489 72.6267 705.489 73.72ZM700.089 70.2C699.289 70.2 698.609 70.44 698.049 70.92C697.502 71.3867 697.169 72.0133 697.049 72.8H703.109C703.002 72.0267 702.675 71.4 702.129 70.92C701.582 70.44 700.902 70.2 700.089 70.2ZM716.132 77V79H706.912V77.42L712.772 70.32H707.032V68.32H715.972V69.9L710.092 77H716.132ZM737.444 68.2C738.791 68.2 739.858 68.5933 740.644 69.38C741.431 70.1533 741.824 71.32 741.824 72.88V79H739.324V73.2C739.324 72.2667 739.118 71.5667 738.704 71.1C738.291 70.62 737.698 70.38 736.924 70.38C736.084 70.38 735.411 70.66 734.904 71.22C734.398 71.7667 734.144 72.5533 734.144 73.58V79H731.644V73.2C731.644 72.2667 731.438 71.5667 731.024 71.1C730.611 70.62 730.018 70.38 729.244 70.38C728.391 70.38 727.711 70.6533 727.204 71.2C726.711 71.7467 726.464 72.54 726.464 73.58V79H723.964V68.32H726.344V69.68C726.744 69.2 727.244 68.8333 727.844 68.58C728.444 68.3267 729.111 68.2 729.844 68.2C730.644 68.2 731.351 68.3533 731.964 68.66C732.591 68.9533 733.084 69.3933 733.444 69.98C733.884 69.42 734.451 68.9867 735.144 68.68C735.838 68.36 736.604 68.2 737.444 68.2ZM749.099 68.2C750.672 68.2 751.872 68.58 752.699 69.34C753.539 70.0867 753.959 71.22 753.959 72.74V79H751.599V77.7C751.292 78.1667 750.852 78.5267 750.279 78.78C749.719 79.02 749.039 79.14 748.239 79.14C747.439 79.14 746.739 79.0067 746.139 78.74C745.539 78.46 745.072 78.08 744.739 77.6C744.419 77.1067 744.259 76.5533 744.259 75.94C744.259 74.98 744.612 74.2133 745.319 73.64C746.039 73.0533 747.166 72.76 748.699 72.76H751.459V72.6C751.459 71.8533 751.232 71.28 750.779 70.88C750.339 70.48 749.679 70.28 748.799 70.28C748.199 70.28 747.606 70.3733 747.019 70.56C746.446 70.7467 745.959 71.0067 745.559 71.34L744.579 69.52C745.139 69.0933 745.812 68.7667 746.599 68.54C747.386 68.3133 748.219 68.2 749.099 68.2ZM748.759 77.32C749.386 77.32 749.939 77.18 750.419 76.9C750.912 76.6067 751.259 76.1933 751.459 75.66V74.42H748.879C747.439 74.42 746.719 74.8933 746.719 75.84C746.719 76.2933 746.899 76.6533 747.259 76.92C747.619 77.1867 748.119 77.32 748.759 77.32ZM757.167 68.32H759.667V79H757.167V68.32ZM758.427 66.56C757.974 66.56 757.594 66.42 757.287 66.14C756.981 65.8467 756.827 65.4867 756.827 65.06C756.827 64.6333 756.981 64.28 757.287 64C757.594 63.7067 757.974 63.56 758.427 63.56C758.881 63.56 759.261 63.7 759.567 63.98C759.874 64.2467 760.027 64.5867 760.027 65C760.027 65.44 759.874 65.8133 759.567 66.12C759.274 66.4133 758.894 66.56 758.427 66.56ZM769.009 68.2C770.355 68.2 771.435 68.5933 772.249 69.38C773.062 70.1667 773.469 71.3333 773.469 72.88V79H770.969V73.2C770.969 72.2667 770.749 71.5667 770.309 71.1C769.869 70.62 769.242 70.38 768.429 70.38C767.509 70.38 766.782 70.66 766.249 71.22C765.715 71.7667 765.449 72.56 765.449 73.6V79H762.949V68.32H765.329V69.7C765.742 69.2067 766.262 68.8333 766.889 68.58C767.515 68.3267 768.222 68.2 769.009 68.2ZM783.06 78.42C782.767 78.66 782.407 78.84 781.98 78.96C781.567 79.08 781.127 79.14 780.66 79.14C779.487 79.14 778.58 78.8333 777.94 78.22C777.3 77.6067 776.98 76.7133 776.98 75.54V70.4H775.22V68.4H776.98V65.96H779.48V68.4H782.34V70.4H779.48V75.48C779.48 76 779.607 76.4 779.86 76.68C780.113 76.9467 780.48 77.08 780.96 77.08C781.52 77.08 781.987 76.9333 782.36 76.64L783.06 78.42ZM794.805 73.72C794.805 73.8933 794.792 74.14 794.765 74.46H786.385C786.532 75.2467 786.912 75.8733 787.525 76.34C788.152 76.7933 788.925 77.02 789.845 77.02C791.018 77.02 791.985 76.6333 792.745 75.86L794.085 77.4C793.605 77.9733 792.998 78.4067 792.265 78.7C791.532 78.9933 790.705 79.14 789.785 79.14C788.612 79.14 787.578 78.9067 786.685 78.44C785.792 77.9733 785.098 77.3267 784.605 76.5C784.125 75.66 783.885 74.7133 783.885 73.66C783.885 72.62 784.118 71.6867 784.585 70.86C785.065 70.02 785.725 69.3667 786.565 68.9C787.405 68.4333 788.352 68.2 789.405 68.2C790.445 68.2 791.372 68.4333 792.185 68.9C793.012 69.3533 793.652 70 794.105 70.84C794.572 71.6667 794.805 72.6267 794.805 73.72ZM789.405 70.2C788.605 70.2 787.925 70.44 787.365 70.92C786.818 71.3867 786.485 72.0133 786.365 72.8H792.425C792.318 72.0267 791.992 71.4 791.445 70.92C790.898 70.44 790.218 70.2 789.405 70.2ZM803.266 68.2C804.613 68.2 805.693 68.5933 806.506 69.38C807.32 70.1667 807.726 71.3333 807.726 72.88V79H805.226V73.2C805.226 72.2667 805.006 71.5667 804.566 71.1C804.126 70.62 803.5 70.38 802.686 70.38C801.766 70.38 801.04 70.66 800.506 71.22C799.973 71.7667 799.706 72.56 799.706 73.6V79H797.206V68.32H799.586V69.7C800 69.2067 800.52 68.8333 801.146 68.58C801.773 68.3267 802.48 68.2 803.266 68.2ZM814.978 68.2C816.551 68.2 817.751 68.58 818.578 69.34C819.418 70.0867 819.838 71.22 819.838 72.74V79H817.478V77.7C817.171 78.1667 816.731 78.5267 816.158 78.78C815.598 79.02 814.918 79.14 814.118 79.14C813.318 79.14 812.618 79.0067 812.018 78.74C811.418 78.46 810.951 78.08 810.618 77.6C810.298 77.1067 810.138 76.5533 810.138 75.94C810.138 74.98 810.491 74.2133 811.198 73.64C811.918 73.0533 813.044 72.76 814.578 72.76H817.338V72.6C817.338 71.8533 817.111 71.28 816.658 70.88C816.218 70.48 815.558 70.28 814.678 70.28C814.078 70.28 813.484 70.3733 812.898 70.56C812.324 70.7467 811.838 71.0067 811.438 71.34L810.458 69.52C811.018 69.0933 811.691 68.7667 812.478 68.54C813.264 68.3133 814.098 68.2 814.978 68.2ZM814.638 77.32C815.264 77.32 815.818 77.18 816.298 76.9C816.791 76.6067 817.138 76.1933 817.338 75.66V74.42H814.758C813.318 74.42 812.598 74.8933 812.598 75.84C812.598 76.2933 812.778 76.6533 813.138 76.92C813.498 77.1867 813.998 77.32 814.638 77.32ZM829.106 68.2C830.453 68.2 831.533 68.5933 832.346 69.38C833.16 70.1667 833.566 71.3333 833.566 72.88V79H831.066V73.2C831.066 72.2667 830.846 71.5667 830.406 71.1C829.966 70.62 829.34 70.38 828.526 70.38C827.606 70.38 826.88 70.66 826.346 71.22C825.813 71.7667 825.546 72.56 825.546 73.6V79H823.046V68.32H825.426V69.7C825.84 69.2067 826.36 68.8333 826.986 68.58C827.613 68.3267 828.32 68.2 829.106 68.2ZM843.158 78.42C842.864 78.66 842.504 78.84 842.078 78.96C841.664 79.08 841.224 79.14 840.758 79.14C839.584 79.14 838.678 78.8333 838.038 78.22C837.398 77.6067 837.078 76.7133 837.078 75.54V70.4H835.318V68.4H837.078V65.96H839.578V68.4H842.438V70.4H839.578V75.48C839.578 76 839.704 76.4 839.958 76.68C840.211 76.9467 840.578 77.08 841.058 77.08C841.618 77.08 842.084 76.9333 842.458 76.64L843.158 78.42ZM850.422 65H853.382L852.882 74.36H850.902L850.422 65ZM851.902 79.14C851.435 79.14 851.048 78.9933 850.742 78.7C850.435 78.3933 850.282 78.02 850.282 77.58C850.282 77.14 850.435 76.7733 850.742 76.48C851.048 76.1867 851.435 76.04 851.902 76.04C852.355 76.04 852.728 76.1867 853.022 76.48C853.328 76.7733 853.482 77.14 853.482 77.58C853.482 78.02 853.328 78.3933 853.022 78.7C852.728 78.9933 852.355 79.14 851.902 79.14Z" fill="white"/>
<rect x="612" y="100" width="272" height="53" fill="black"/>
<path d="M677.148 135.49C675.884 135.49 674.916 135.13 674.244 134.41C673.588 133.69 673.26 132.674 673.26 131.362V122.338C673.26 121.026 673.588 120.01 674.244 119.29C674.916 118.57 675.884 118.21 677.148 118.21C678.412 118.21 679.372 118.57 680.028 119.29C680.7 120.01 681.036 121.026 681.036 122.338V124.114H678.54V122.17C678.54 121.13 678.1 120.61 677.22 120.61C676.34 120.61 675.9 121.13 675.9 122.17V131.554C675.9 132.578 676.34 133.09 677.22 133.09C678.1 133.09 678.54 132.578 678.54 131.554V128.986H681.036V131.362C681.036 132.674 680.7 133.69 680.028 134.41C679.372 135.13 678.412 135.49 677.148 135.49ZM682.616 118.45H685.256V132.85H689.6V135.25H682.616V118.45ZM690.866 118.45H693.506V135.25H690.866V118.45ZM699.203 135.49C697.939 135.49 696.971 135.13 696.299 134.41C695.643 133.69 695.315 132.674 695.315 131.362V122.338C695.315 121.026 695.643 120.01 696.299 119.29C696.971 118.57 697.939 118.21 699.203 118.21C700.467 118.21 701.427 118.57 702.083 119.29C702.755 120.01 703.091 121.026 703.091 122.338V124.114H700.595V122.17C700.595 121.13 700.155 120.61 699.275 120.61C698.395 120.61 697.955 121.13 697.955 122.17V131.554C697.955 132.578 698.395 133.09 699.275 133.09C700.155 133.09 700.595 132.578 700.595 131.554V128.986H703.091V131.362C703.091 132.674 702.755 133.69 702.083 134.41C701.427 135.13 700.467 135.49 699.203 135.49ZM704.671 118.45H707.311V125.53L710.671 118.45H713.311L710.167 124.618L713.359 135.25H710.599L708.367 127.762L707.311 129.898V135.25H704.671V118.45ZM721.212 135.49C720.252 135.49 719.524 135.162 719.028 134.506C718.532 133.85 718.284 132.898 718.284 131.65V129.898C718.284 129.018 718.436 128.282 718.74 127.69C719.044 127.098 719.54 126.666 720.228 126.394V126.346C719.604 126.09 719.14 125.682 718.836 125.122C718.548 124.546 718.404 123.81 718.404 122.914V122.602C718.404 121.242 718.732 120.21 719.388 119.506C720.044 118.802 721.028 118.45 722.34 118.45H725.364V120.85H722.388C721.956 120.85 721.62 120.978 721.38 121.234C721.156 121.49 721.044 121.906 721.044 122.482V123.514C721.044 124.154 721.172 124.61 721.428 124.882C721.7 125.154 722.1 125.29 722.628 125.29H723.66V123.418H726.252V125.29H726.996V127.69H726.252V133.21C726.252 133.69 726.268 134.082 726.3 134.386C726.332 134.674 726.412 134.962 726.54 135.25H723.9C723.772 134.898 723.692 134.458 723.66 133.93H723.612C723.324 134.458 722.988 134.85 722.604 135.106C722.236 135.362 721.772 135.49 721.212 135.49ZM722.196 133.09C723.028 133.09 723.516 132.586 723.66 131.578V127.69H722.652C722.044 127.69 721.604 127.858 721.332 128.194C721.06 128.514 720.924 129.058 720.924 129.826V131.53C720.924 132.09 721.036 132.49 721.26 132.73C721.484 132.97 721.796 133.09 722.196 133.09ZM736.023 135.49C734.759 135.49 733.791 135.13 733.119 134.41C732.463 133.69 732.135 132.674 732.135 131.362V122.338C732.135 121.026 732.463 120.01 733.119 119.29C733.791 118.57 734.759 118.21 736.023 118.21C737.287 118.21 738.247 118.57 738.903 119.29C739.575 120.01 739.911 121.026 739.911 122.338V124.114H737.415V122.17C737.415 121.13 736.975 120.61 736.095 120.61C735.215 120.61 734.775 121.13 734.775 122.17V131.554C734.775 132.578 735.215 133.09 736.095 133.09C736.975 133.09 737.415 132.578 737.415 131.554V128.986H739.911V131.362C739.911 132.674 739.575 133.69 738.903 134.41C738.247 135.13 737.287 135.49 736.023 135.49ZM745.354 135.49C744.058 135.49 743.066 135.122 742.378 134.386C741.69 133.65 741.346 132.61 741.346 131.266V122.434C741.346 121.09 741.69 120.05 742.378 119.314C743.066 118.578 744.058 118.21 745.354 118.21C746.65 118.21 747.642 118.578 748.33 119.314C749.018 120.05 749.362 121.09 749.362 122.434V131.266C749.362 132.61 749.018 133.65 748.33 134.386C747.642 135.122 746.65 135.49 745.354 135.49ZM745.354 133.09C746.266 133.09 746.722 132.538 746.722 131.434V122.266C746.722 121.162 746.266 120.61 745.354 120.61C744.442 120.61 743.986 121.162 743.986 122.266V131.434C743.986 132.538 744.442 133.09 745.354 133.09ZM751.147 118.45H753.787V132.85H758.131V135.25H751.147V118.45ZM759.397 118.45H762.037V132.85H766.381V135.25H759.397V118.45ZM767.647 118.45H774.847V120.85H770.287V125.29H773.911V127.69H770.287V132.85H774.847V135.25H767.647V118.45ZM780.086 135.49C778.822 135.49 777.854 135.13 777.182 134.41C776.526 133.69 776.198 132.674 776.198 131.362V122.338C776.198 121.026 776.526 120.01 777.182 119.29C777.854 118.57 778.822 118.21 780.086 118.21C781.35 118.21 782.31 118.57 782.966 119.29C783.638 120.01 783.974 121.026 783.974 122.338V124.114H781.478V122.17C781.478 121.13 781.038 120.61 780.158 120.61C779.278 120.61 778.838 121.13 778.838 122.17V131.554C778.838 132.578 779.278 133.09 780.158 133.09C781.038 133.09 781.478 132.578 781.478 131.554V128.986H783.974V131.362C783.974 132.674 783.638 133.69 782.966 134.41C782.31 135.13 781.35 135.49 780.086 135.49ZM787.617 120.85H784.857V118.45H793.017V120.85H790.257V135.25H787.617V120.85Z" fill="white"/>
</svg>
