<svg width="149" height="29" viewBox="0 0 149 29" fill="none" xmlns="http://www.w3.org/2000/svg">
<path d="M0.984 5.2H4.296L6.864 15.256H6.912V5.2H9.264V22H6.552L3.384 9.736H3.336V22H0.984V5.2ZM15.0422 22.24C13.7462 22.24 12.7542 21.872 12.0662 21.136C11.3782 20.4 11.0342 19.36 11.0342 18.016V9.184C11.0342 7.84 11.3782 6.8 12.0662 6.064C12.7542 5.328 13.7462 4.96 15.0422 4.96C16.3382 4.96 17.3302 5.328 18.0182 6.064C18.7062 6.8 19.0502 7.84 19.0502 9.184V18.016C19.0502 19.36 18.7062 20.4 18.0182 21.136C17.3302 21.872 16.3382 22.24 15.0422 22.24ZM15.0422 19.84C15.9542 19.84 16.4102 19.288 16.4102 18.184V9.016C16.4102 7.912 15.9542 7.36 15.0422 7.36C14.1302 7.36 13.6742 7.912 13.6742 9.016V18.184C13.6742 19.288 14.1302 19.84 15.0422 19.84ZM22.8058 7.6H20.0458V5.2H28.2058V7.6H25.4458V22H22.8058V7.6ZM29.484 5.2H33.396C34.756 5.2 35.748 5.52 36.372 6.16C36.996 6.784 37.308 7.752 37.308 9.064V10.096C37.308 11.84 36.732 12.944 35.58 13.408V13.456C36.22 13.648 36.668 14.04 36.924 14.632C37.196 15.224 37.332 16.016 37.332 17.008V19.96C37.332 20.44 37.348 20.832 37.38 21.136C37.412 21.424 37.492 21.712 37.62 22H34.932C34.836 21.728 34.772 21.472 34.74 21.232C34.708 20.992 34.692 20.56 34.692 19.936V16.864C34.692 16.096 34.564 15.56 34.308 15.256C34.068 14.952 33.644 14.8 33.036 14.8H32.124V22H29.484V5.2ZM33.084 12.4C33.612 12.4 34.004 12.264 34.26 11.992C34.532 11.72 34.668 11.264 34.668 10.624V9.328C34.668 8.72 34.556 8.28 34.332 8.008C34.124 7.736 33.788 7.6 33.324 7.6H32.124V12.4H33.084ZM39.1637 5.2H46.3637V7.6H41.8037V12.04H45.4277V14.44H41.8037V19.6H46.3637V22H39.1637V5.2ZM55.1582 22.24C53.8782 22.24 52.9102 21.88 52.2542 21.16C51.5982 20.424 51.2702 19.376 51.2702 18.016V17.056H53.7662V18.208C53.7662 19.296 54.2222 19.84 55.1342 19.84C55.5822 19.84 55.9182 19.712 56.1422 19.456C56.3822 19.184 56.5022 18.752 56.5022 18.16C56.5022 17.456 56.3422 16.84 56.0222 16.312C55.7022 15.768 55.1102 15.12 54.2462 14.368C53.1582 13.408 52.3982 12.544 51.9662 11.776C51.5342 10.992 51.3182 10.112 51.3182 9.136C51.3182 7.808 51.6542 6.784 52.3262 6.064C52.9982 5.328 53.9742 4.96 55.2542 4.96C56.5182 4.96 57.4702 5.328 58.1102 6.064C58.7662 6.784 59.0942 7.824 59.0942 9.184V9.88H56.5982V9.016C56.5982 8.44 56.4862 8.024 56.2622 7.768C56.0382 7.496 55.7102 7.36 55.2782 7.36C54.3982 7.36 53.9582 7.896 53.9582 8.968C53.9582 9.576 54.1182 10.144 54.4382 10.672C54.7742 11.2 55.3742 11.84 56.2382 12.592C57.3422 13.552 58.1022 14.424 58.5182 15.208C58.9342 15.992 59.1422 16.912 59.1422 17.968C59.1422 19.344 58.7982 20.4 58.1102 21.136C57.4382 21.872 56.4542 22.24 55.1582 22.24ZM62.6256 5.2H66.2016L68.9376 22H66.2976L65.8176 18.664V18.712H62.8176L62.3376 22H59.8896L62.6256 5.2ZM65.5056 16.432L64.3296 8.128H64.2816L63.1296 16.432H65.5056ZM68.8427 5.2H71.5067L73.2347 18.232H73.2827L75.0107 5.2H77.4347L74.8907 22H71.3867L68.8427 5.2ZM82.4719 22.24C81.1759 22.24 80.1839 21.872 79.4959 21.136C78.8079 20.4 78.4639 19.36 78.4639 18.016V9.184C78.4639 7.84 78.8079 6.8 79.4959 6.064C80.1839 5.328 81.1759 4.96 82.4719 4.96C83.7679 4.96 84.7599 5.328 85.4479 6.064C86.1359 6.8 86.4799 7.84 86.4799 9.184V18.016C86.4799 19.36 86.1359 20.4 85.4479 21.136C84.7599 21.872 83.7679 22.24 82.4719 22.24ZM82.4719 19.84C83.3839 19.84 83.8399 19.288 83.8399 18.184V9.016C83.8399 7.912 83.3839 7.36 82.4719 7.36C81.5599 7.36 81.1039 7.912 81.1039 9.016V18.184C81.1039 19.288 81.5599 19.84 82.4719 19.84ZM88.2653 5.2H90.9053V22H88.2653V5.2ZM92.8824 5.2H96.7944C98.1544 5.2 99.1464 5.52 99.7704 6.16C100.394 6.784 100.706 7.752 100.706 9.064V10.096C100.706 11.84 100.13 12.944 98.9784 13.408V13.456C99.6184 13.648 100.066 14.04 100.322 14.632C100.594 15.224 100.73 16.016 100.73 17.008V19.96C100.73 20.44 100.746 20.832 100.778 21.136C100.81 21.424 100.89 21.712 101.018 22H98.3304C98.2344 21.728 98.1704 21.472 98.1384 21.232C98.1064 20.992 98.0904 20.56 98.0904 19.936V16.864C98.0904 16.096 97.9624 15.56 97.7064 15.256C97.4664 14.952 97.0424 14.8 96.4344 14.8H95.5224V22H92.8824V5.2ZM96.4824 12.4C97.0104 12.4 97.4024 12.264 97.6584 11.992C97.9304 11.72 98.0664 11.264 98.0664 10.624V9.328C98.0664 8.72 97.9544 8.28 97.7304 8.008C97.5224 7.736 97.1864 7.6 96.7224 7.6H95.5224V12.4H96.4824ZM102.178 12.4H107.458V14.8H102.178V12.4ZM109.031 5.2H116.015V7.6H111.671V12.28H115.079V14.68H111.671V22H109.031V5.2ZM118.547 5.2H122.123L124.859 22H122.219L121.739 18.664V18.712H118.739L118.259 22H115.811L118.547 5.2ZM121.427 16.432L120.251 8.128H120.203L119.051 16.432H121.427ZM126.14 5.2H128.78V22H126.14V5.2ZM130.757 5.2H134.669C136.029 5.2 137.021 5.52 137.645 6.16C138.269 6.784 138.581 7.752 138.581 9.064V10.096C138.581 11.84 138.005 12.944 136.853 13.408V13.456C137.493 13.648 137.941 14.04 138.197 14.632C138.469 15.224 138.605 16.016 138.605 17.008V19.96C138.605 20.44 138.621 20.832 138.653 21.136C138.685 21.424 138.765 21.712 138.893 22H136.205C136.109 21.728 136.045 21.472 136.013 21.232C135.981 20.992 135.965 20.56 135.965 19.936V16.864C135.965 16.096 135.837 15.56 135.581 15.256C135.341 14.952 134.917 14.8 134.309 14.8H133.397V22H130.757V5.2ZM134.357 12.4C134.885 12.4 135.277 12.264 135.533 11.992C135.805 11.72 135.941 11.264 135.941 10.624V9.328C135.941 8.72 135.829 8.28 135.605 8.008C135.397 7.736 135.061 7.6 134.597 7.6H133.397V12.4H134.357ZM140.437 5.2H147.637V7.6H143.077V12.04H146.701V14.44H143.077V19.6H147.637V22H140.437V5.2Z" fill="black"/>
<line y1="27.5" x2="149" y2="27.5" stroke="#D2483D" stroke-width="3"/>
</svg>
