<svg width="310" height="53" viewBox="0 0 310 53" fill="none" xmlns="http://www.w3.org/2000/svg">
<path d="M10.224 30.544L0.648 1.6H9.072L14.472 20.104H14.616L20.016 1.6H27.72L18.144 30.544V52H10.224V30.544ZM42.8079 52.72C38.9679 52.72 36.0399 51.64 34.0239 49.48C32.0079 47.272 30.9999 44.128 30.9999 40.048V1.6H38.9199V40.624C38.9199 42.352 39.2559 43.6 39.9279 44.368C40.6479 45.136 41.6559 45.52 42.9519 45.52C44.2479 45.52 45.2319 45.136 45.9039 44.368C46.6239 43.6 46.9839 42.352 46.9839 40.624V1.6H54.6159V40.048C54.6159 44.128 53.6079 47.272 51.5919 49.48C49.5759 51.64 46.6479 52.72 42.8079 52.72ZM60.2567 1.6H71.5607L76.6007 37.672H76.7447L81.7847 1.6H93.0887V52H85.6007V13.84H85.4567L79.6967 52H73.0727L67.3127 13.84H67.1687V52H60.2567V1.6ZM98.9989 1.6H110.303L115.343 37.672H115.487L120.527 1.6H131.831V52H124.343V13.84H124.199L118.439 52H111.815L106.055 13.84H105.911V52H98.9989V1.6ZM145.013 30.544L135.437 1.6H143.861L149.261 20.104H149.405L154.805 1.6H162.509L152.933 30.544V52H145.013V30.544ZM184.88 30.544L175.304 1.6H183.728L189.128 20.104H189.272L194.672 1.6H202.376L192.8 30.544V52H184.88V30.544ZM208.76 1.6H219.488L227.696 52H219.776L218.336 41.992V42.136H209.336L207.896 52H200.552L208.76 1.6ZM217.4 35.296L213.872 10.384H213.728L210.271 35.296H217.4ZM241.623 52.72C237.783 52.72 234.879 51.64 232.911 49.48C230.943 47.272 229.959 44.128 229.959 40.048V37.168H237.447V40.624C237.447 43.888 238.815 45.52 241.551 45.52C242.895 45.52 243.903 45.136 244.575 44.368C245.295 43.552 245.655 42.256 245.655 40.48C245.655 38.368 245.175 36.52 244.215 34.936C243.255 33.304 241.479 31.36 238.887 29.104C235.623 26.224 233.343 23.632 232.047 21.328C230.751 18.976 230.103 16.336 230.103 13.408C230.103 9.424 231.111 6.352 233.127 4.192C235.143 1.984 238.071 0.879997 241.911 0.879997C245.703 0.879997 248.559 1.984 250.479 4.192C252.447 6.352 253.431 9.472 253.431 13.552V15.64H245.943V13.048C245.943 11.32 245.607 10.072 244.935 9.304C244.263 8.488 243.279 8.08 241.983 8.08C239.343 8.08 238.023 9.688 238.023 12.904C238.023 14.728 238.503 16.432 239.463 18.016C240.471 19.6 242.271 21.52 244.863 23.776C248.175 26.656 250.455 29.272 251.703 31.624C252.951 33.976 253.575 36.736 253.575 39.904C253.575 44.032 252.543 47.2 250.479 49.408C248.463 51.616 245.511 52.72 241.623 52.72ZM268.412 52.72C264.572 52.72 261.668 51.64 259.7 49.48C257.732 47.272 256.748 44.128 256.748 40.048V37.168H264.236V40.624C264.236 43.888 265.604 45.52 268.34 45.52C269.684 45.52 270.692 45.136 271.364 44.368C272.084 43.552 272.444 42.256 272.444 40.48C272.444 38.368 271.964 36.52 271.004 34.936C270.044 33.304 268.268 31.36 265.676 29.104C262.412 26.224 260.132 23.632 258.836 21.328C257.54 18.976 256.892 16.336 256.892 13.408C256.892 9.424 257.9 6.352 259.916 4.192C261.932 1.984 264.86 0.879997 268.7 0.879997C272.492 0.879997 275.348 1.984 277.268 4.192C279.236 6.352 280.22 9.472 280.22 13.552V15.64H272.732V13.048C272.732 11.32 272.396 10.072 271.724 9.304C271.052 8.488 270.068 8.08 268.772 8.08C266.132 8.08 264.812 9.688 264.812 12.904C264.812 14.728 265.292 16.432 266.252 18.016C267.26 19.6 269.06 21.52 271.652 23.776C274.964 26.656 277.244 29.272 278.492 31.624C279.74 33.976 280.364 36.736 280.364 39.904C280.364 44.032 279.332 47.2 277.268 49.408C275.252 51.616 272.3 52.72 268.412 52.72ZM290.814 1.6H301.542L309.75 52H301.83L300.39 41.992V42.136H291.39L289.95 52H282.606L290.814 1.6ZM299.454 35.296L295.926 10.384H295.782L292.326 35.296H299.454Z" fill="black"/>
</svg>
